<?xml version="1.0" encoding="UTF-8"?>
<svg version="1.1" xmlns="http://www.w3.org/2000/svg" width="291" height="244">
<path d="M0 0 C3.93681683 1.20607683 7.21928744 2.6585588 10.75 4.75 C21.03922878 10.00380096 32.76556253 11.71856145 44 14 C44.83853516 14.17160645 45.67707031 14.34321289 46.54101562 14.52001953 C54.46140259 16.10924003 62.40826034 17.24630055 70.4375 18.125 C71.1277124 18.20073242 71.8179248 18.27646484 72.52905273 18.35449219 C124.18409216 23.52877602 192.16505534 26.00662775 239 0 C238.46982775 10.07327268 230.90016102 17.92315676 223.90234375 24.46875 C210.71190897 35.97265544 193.64495449 42.34030884 177 47 C176.90332031 47.94488281 176.80664062 48.88976562 176.70703125 49.86328125 C176 53 176 53 172.6875 55.1875 C157.44891195 61.6874995 140.31228822 62.34913275 123.97363281 62.26074219 C121.63319829 62.2500375 119.29353633 62.26070723 116.953125 62.2734375 C109.03571934 62.28125018 101.22515337 61.96426429 93.3515625 61.10546875 C92.63416901 61.02746033 91.91677551 60.9494519 91.17764282 60.86907959 C82.10010701 59.77782881 71.69163693 58.08603803 64 53 C63.125 49.8125 63.125 49.8125 63 47 C61.97003906 46.731875 60.94007812 46.46375 59.87890625 46.1875 C44.50075293 42.02311503 30.39709693 36.22111696 18 26 C17.18917969 25.34 16.37835937 24.68 15.54296875 24 C8.52901721 18.04453866 3.08645408 11.74495323 0 3 C0 2.01 0 1.02 0 0 Z " fill="#5FAB2F" transform="translate(14,156)"/>
<path d="M0 0 C3.44298477 0.59166813 6.37409002 1.49701896 9.5625 2.91015625 C16.19998 5.63521054 23.0406227 6.74159422 30.078125 7.97851562 C43.5839479 10.54981652 55.79550277 17.36089748 63.75 28.86328125 C67.37669419 35.06266163 69.62742912 40.78456507 69 48 C71.31 48.33 73.62 48.66 76 49 C76 49.66 76 50.32 76 51 C73.4392555 51.98397585 70.87658508 52.96229967 68.3125 53.9375 C67.59126953 54.21529297 66.87003906 54.49308594 66.12695312 54.77929688 C54.04581644 59.35799251 41.1459615 59.6116464 28.91015625 55.3359375 C24.31701127 53.22740652 20.69395341 50.41399063 17 47 C16.113125 46.21625 15.22625 45.4325 14.3125 44.625 C10.15632854 39.90718375 6.7140723 34.67253975 4 29 C4 31.42797311 4.50085685 33.62907005 5 36 C0.99255804 37.00745748 -3.01531576 38.00802099 -7.03515625 38.96484375 C-7.69966797 39.12533203 -8.36417969 39.28582031 -9.04882812 39.45117188 C-10.39408339 39.77606864 -11.74045767 40.09636568 -13.08789062 40.41210938 C-16.47909821 41.23931356 -19.61791668 42.2023578 -22.80859375 43.62890625 C-26 45 -26 45 -29 45 C-29.33 45.66 -29.66 46.32 -30 47 C-29.360625 47.2475 -28.72125 47.495 -28.0625 47.75 C-26.42459713 48.41853178 -24.79059934 49.10347593 -23.20458984 49.88720703 C-16.55682064 53.10611024 -9.77075679 54.64463285 -2.5625 56.125 C-1.30896729 56.38506836 -0.05543457 56.64513672 1.23608398 56.91308594 C10.81465472 58.85189288 20.24929712 60.34324255 30 61 C31.90193115 61.13100098 31.90193115 61.13100098 33.84228516 61.26464844 C50.88753426 62.41651996 67.91094249 63.42218198 85 63 C86.0739502 62.98066406 87.14790039 62.96132812 88.25439453 62.94140625 C139.27498208 64.01727491 139.27498208 64.01727491 185 46 C185 45.01 185 44.02 185 43 C184.01 43.99 184.01 43.99 183 45 C178.38 43.35 173.76 41.7 169 40 C169.33 38.35 169.66 36.7 170 35 C170.99 35 171.98 35 173 35 C173.99 32.525 173.99 32.525 175 30 C183.70365635 30.32843986 190.33604502 34.14211511 197.125 39.4375 C199.61705339 42.8433063 200.21892408 44.76746777 200 49 C196.25416855 56.74475961 187.35506982 60.08202486 179.73828125 62.81005859 C168.41349317 66.66933118 157.2047875 69.84292943 145.2734375 71.03515625 C144.08556137 71.16053017 144.08556137 71.16053017 142.87368774 71.28843689 C140.37460553 71.5513352 137.87487264 71.80723813 135.375 72.0625 C132.86814883 72.32270419 130.36146083 72.58439448 127.85488892 72.84727478 C126.30460567 73.00941767 124.75413888 73.16981902 123.20346069 73.32814026 C120.01450977 73.65794531 116.87267512 74.02120035 113.70825195 74.5480957 C108.53460679 75.17857942 103.41412073 75.14255122 98.20703125 75.1328125 C97.06578293 75.13376923 95.92453461 75.13472595 94.748703 75.13571167 C92.33222397 75.13639093 89.91574309 75.13455435 87.49926758 75.13037109 C83.86991056 75.12508364 80.24068098 75.13029118 76.61132812 75.13671875 C57.29623121 75.14475187 38.28766988 74.59856943 19.13476562 72.00805664 C16.7371778 71.68577646 14.33769038 71.38229365 11.9375 71.08007812 C-31.20552739 65.47160833 -31.20552739 65.47160833 -42.7109375 51.99609375 C-44.56559024 49.12419208 -44.47076556 47.36261116 -44 44 C-39.94976697 36.06154327 -33.38151895 32.73744426 -25.234375 29.98046875 C-21.44372346 28.83137028 -17.64424832 27.75309649 -13.8125 26.75 C-12.83325562 26.4869104 -12.83325562 26.4869104 -11.83422852 26.21850586 C-7.08089277 25.03211633 -2.85525648 24.84877955 2 25 C1.855625 24.28457031 1.71125 23.56914063 1.5625 22.83203125 C0.13013204 15.14300048 -0.2267563 7.81049489 0 0 Z M43 42 C48.60115228 46.73943655 53.94646251 47.24322543 61 47 C57.89370844 45.31099986 54.84794949 44.29373333 51.4375 43.375 C50.48746094 43.11460937 49.53742188 42.85421875 48.55859375 42.5859375 C45.95008839 41.88838557 45.95008839 41.88838557 43 42 Z " fill="#094D22" transform="translate(56,100)"/>
<path d="M0 0 C1.0828125 0.8353125 1.0828125 0.8353125 2.1875 1.6875 C-0.18402176 4.25664858 -2.67028619 6.34732084 -5.5 8.375 C-13.24989938 14.1119385 -19.40372101 21.14493879 -25.18359375 28.81640625 C-25.72113281 29.43386719 -26.25867188 30.05132812 -26.8125 30.6875 C-27.4725 30.6875 -28.1325 30.6875 -28.8125 30.6875 C-28.8125 31.3475 -28.8125 32.0075 -28.8125 32.6875 C-35.18620459 37.76705137 -41.85110057 41.82179831 -49.8125 43.6875 C-51.2046875 44.0278125 -51.2046875 44.0278125 -52.625 44.375 C-61.98473014 45.2926206 -70.89607203 44.98763803 -79.8125 41.6875 C-80.1425 41.0275 -80.4725 40.3675 -80.8125 39.6875 C-78.8125 36.6875 -76.8125 33.6875 -74.8125 30.6875 C-74.1525 30.6875 -73.4925 30.6875 -72.8125 30.6875 C-72.8125 30.0275 -72.8125 29.3675 -72.8125 28.6875 C-71.52016393 27.31439293 -70.18812854 25.97715176 -68.8125 24.6875 C-75.95450825 30.28980258 -80.88872892 36.67731472 -85.44921875 44.4921875 C-85.89910156 45.21664062 -86.34898437 45.94109375 -86.8125 46.6875 C-87.1425 46.6875 -87.4725 46.6875 -87.8125 46.6875 C-88.60683037 33.20594843 -85.28078137 22.43114199 -78.8125 10.6875 C-78.1525 10.6875 -77.4925 10.6875 -76.8125 10.6875 C-76.57789063 10.1203125 -76.34328125 9.553125 -76.1015625 8.96875 C-71.50814486 0.83979272 -62.63944783 -4.45883748 -53.98828125 -7.2109375 C-36.34611501 -11.94155526 -15.49617339 -10.26986963 0 0 Z M-65.8125 20.6875 C-65.4825 21.3475 -65.1525 22.0075 -64.8125 22.6875 C-64.4825 22.0275 -64.1525 21.3675 -63.8125 20.6875 C-64.4725 20.6875 -65.1325 20.6875 -65.8125 20.6875 Z " fill="#73B52E" transform="translate(244.8125,112.3125)"/>
<path d="M0 0 C3.44298477 0.59166813 6.37409002 1.49701896 9.5625 2.91015625 C16.19998 5.63521054 23.0406227 6.74159422 30.078125 7.97851562 C43.5839479 10.54981652 55.79550277 17.36089748 63.75 28.86328125 C67.37669419 35.06266163 69.62742912 40.78456507 69 48 C71.31 48.33 73.62 48.66 76 49 C76 49.66 76 50.32 76 51 C73.4392555 51.98397585 70.87658508 52.96229967 68.3125 53.9375 C67.59126953 54.21529297 66.87003906 54.49308594 66.12695312 54.77929688 C54.04581644 59.35799251 41.1459615 59.6116464 28.91015625 55.3359375 C24.31701127 53.22740652 20.69395341 50.41399063 17 47 C16.113125 46.21625 15.22625 45.4325 14.3125 44.625 C10.15632854 39.90718375 6.7140723 34.67253975 4 29 C4 31.42797311 4.50085685 33.62907005 5 36 C0.99255804 37.00745748 -3.01531576 38.00802099 -7.03515625 38.96484375 C-7.69966797 39.12533203 -8.36417969 39.28582031 -9.04882812 39.45117188 C-10.39408339 39.77606864 -11.74045767 40.09636568 -13.08789062 40.41210938 C-16.47909821 41.23931356 -19.61791668 42.2023578 -22.80859375 43.62890625 C-26 45 -26 45 -29 45 C-28.67 42.36 -28.34 39.72 -28 37 C-26.02 36.505 -26.02 36.505 -24 36 C-24.33 34.68 -24.66 33.36 -25 32 C-16.83807096 26.62054677 -7.73511948 24.43835849 2 25 C1.855625 24.28457031 1.71125 23.56914063 1.5625 22.83203125 C0.13013204 15.14300048 -0.2267563 7.81049489 0 0 Z M43 42 C48.60115228 46.73943655 53.94646251 47.24322543 61 47 C57.89370844 45.31099986 54.84794949 44.29373333 51.4375 43.375 C50.48746094 43.11460937 49.53742188 42.85421875 48.55859375 42.5859375 C45.95008839 41.88838557 45.95008839 41.88838557 43 42 Z " fill="#045423" transform="translate(56,100)"/>
<path d="M0 0 C4.02848145 2.42224258 5.10942478 5.02409231 6.6875 9.375 C7.10386719 10.49648438 7.52023438 11.61796875 7.94921875 12.7734375 C12.46842542 26.65025798 10.62330746 40.97526992 4.09375 53.8359375 C3.39788587 55.18335367 2.69993391 56.52969344 2 57.875 C-5.23727063 71.81208712 -8.73812042 86.41591855 -4.25 101.875 C-2.98096057 105.60934182 -1.53460782 109.08066959 0.3125 112.5625 C2.07087961 116.1443844 2.1818957 116.51531397 1 120 C-9.39478124 111.95608209 -18.10827417 101.02542965 -21 88 C-22.56081135 70.43495205 -17.907926 57.18196645 -9.94433594 41.82470703 C-2.87279143 28.16061095 -0.56621618 15.2097381 0 0 Z " fill="#69AE2A" transform="translate(131,6)"/>
<path d="M0 0 C0.721875 0.5775 1.44375 1.155 2.1875 1.75 C2.1875 2.08 2.1875 2.41 2.1875 2.75 C1.40737549 2.7593457 0.62725098 2.76869141 -0.17651367 2.77832031 C-3.78493225 2.83271456 -7.39214855 2.91622354 -11 3 C-12.83981445 3.02126953 -12.83981445 3.02126953 -14.71679688 3.04296875 C-26.43868456 3.35225339 -36.26708542 6.14991751 -46.58203125 11.65234375 C-48.67926241 12.68443124 -50.61784302 13.35604171 -52.875 13.9375 C-53.844375 14.205625 -54.81375 14.47375 -55.8125 14.75 C-56.1425 15.41 -56.4725 16.07 -56.8125 16.75 C-62.22426471 20.75 -62.22426471 20.75 -65.8125 20.75 C-65.8125 21.41 -65.8125 22.07 -65.8125 22.75 C-67.28125 23.90625 -67.28125 23.90625 -69.3125 25.25 C-77.00877055 30.83490429 -81.92160522 38.74671764 -86.8125 46.75 C-87.1425 46.75 -87.4725 46.75 -87.8125 46.75 C-88.60683037 33.26844843 -85.28078137 22.49364199 -78.8125 10.75 C-78.1525 10.75 -77.4925 10.75 -76.8125 10.75 C-76.57789063 10.1828125 -76.34328125 9.615625 -76.1015625 9.03125 C-71.50814486 0.90229272 -62.63944783 -4.39633748 -53.98828125 -7.1484375 C-36.26727163 -11.90019654 -15.64597243 -10.11084067 0 0 Z " fill="#055224" transform="translate(244.8125,112.25)"/>
<path d="M0 0 C1.05380859 0.43892578 1.05380859 0.43892578 2.12890625 0.88671875 C9.33753699 3.6819021 16.8532956 5.59332657 24.421875 7.125 C34.8129657 9.24465501 43.61766549 11.08689386 52 18 C52.65742187 18.48339844 53.31484375 18.96679688 53.9921875 19.46484375 C61.05028233 24.93259533 65.49805132 32.52117392 68 41 C68.1875 44.5 68.1875 44.5 68 47 C59.04933087 47.73066687 50.41971988 44.80657329 42 42 C42 41.34 42 40.68 42 40 C40.906875 39.690625 39.81375 39.38125 38.6875 39.0625 C36.44592006 38.41662103 34.2130649 37.7376883 32 37 C31.67 36.34 31.34 35.68 31 35 C30.113125 34.566875 29.22625 34.13375 28.3125 33.6875 C16.51974133 27.67986823 7.31515797 15.36032549 1 4 C0.30078125 1.66796875 0.30078125 1.66796875 0 0 Z " fill="#72B42F" transform="translate(57,100)"/>
<path d="M0 0 C8.70365635 0.32843986 15.33604502 4.14211511 22.125 9.4375 C24.61705339 12.8433063 25.21892408 14.76746777 25 19 C20.30361754 28.71008806 7.17439868 32.13709137 -2.2109375 35.43359375 C-5.4307906 36.08748549 -7.816241 35.71845889 -11 35 C-11 34.01 -11 33.02 -11 32 C-10.38125 31.855625 -9.7625 31.71125 -9.125 31.5625 C-6.96741678 31.06847775 -6.96741678 31.06847775 -5 30 C-4.9175 29.21625 -4.835 28.4325 -4.75 27.625 C-4 25 -4 25 -1.25 23.4375 C-0.1775 22.963125 0.895 22.48875 2 22 C3.69321939 20.70055256 5.36395804 19.37073786 7 18 C7.99 17.34 8.98 16.68 10 16 C10 15.01 10 14.02 10 13 C9.34 13.66 8.68 14.32 8 15 C3.38 13.35 -1.24 11.7 -6 10 C-5.67 8.35 -5.34 6.7 -5 5 C-4.01 5 -3.02 5 -2 5 C-1.34 3.35 -0.68 1.7 0 0 Z " fill="#095227" transform="translate(231,130)"/>
<path d="M0 0 C0.96403695 2.55499363 1.08383919 3.74889542 0.20703125 6.375 C-10.81221301 27.11710685 -32.31664555 38.33646113 -54.0625 45 C-56.37002722 45.68764365 -58.68120107 46.35086113 -61 47 C-61.0928125 47.94359375 -61.185625 48.8871875 -61.28125 49.859375 C-62 53 -62 53 -63.53125 54.390625 C-68.42715108 56.52772468 -73.60654443 58.70906671 -79 59 C-79.66 58.34 -80.32 57.68 -81 57 C-77.7 56.34 -74.4 55.68 -71 55 C-70.67 54.01 -70.34 53.02 -70 52 C-71.98 51.34 -73.96 50.68 -76 50 C-75.505 49.01 -75.505 49.01 -75 48 C-74.34 48.33 -73.68 48.66 -73 49 C-73 48.34 -73 47.68 -73 47 C-64.68214634 44.60785814 -56.35715006 42.25131389 -48 40 C-48 39.34 -48 38.68 -48 38 C-47.43152344 37.87882812 -46.86304688 37.75765625 -46.27734375 37.6328125 C-41.45754536 36.58677946 -36.7267066 35.40795516 -32 34 C-32.33 33.01 -32.66 32.02 -33 31 C-32.0625 28.8125 -32.0625 28.8125 -30 27 C-27.92649318 26.83618865 -25.94266033 26.94075555 -23.8671875 27.05859375 C-21.843126 27.18194724 -21.843126 27.18194724 -20.125 25.5 C-19.568125 24.7575 -19.568125 24.7575 -19 24 C-18.34 24 -17.68 24 -17 24 C-17 23.34 -17 22.68 -17 22 C-16.13375 21.46375 -15.2675 20.9275 -14.375 20.375 C-9.82775877 17.50192122 -5.87655169 12.95259517 -4.33203125 7.75 C-4.22246094 7.1725 -4.11289063 6.595 -4 6 C-4.99773437 6.44730469 -5.99546875 6.89460937 -7.0234375 7.35546875 C-19.29573289 12.60732356 -31.63052892 15.22586687 -44.76367188 17.42504883 C-46.58556928 17.74871874 -48.40554123 18.08623355 -50.21549988 18.47109985 C-70.66620513 22.80761124 -91.9171524 22.32515388 -112.73022461 22.26074219 C-116.45101516 22.24931714 -120.17152057 22.25615404 -123.89230156 22.26761627 C-137.29983561 22.30272679 -150.68241351 22.27256251 -164.05078125 21.109375 C-164.96192184 21.03189026 -165.87306244 20.95440552 -166.81181335 20.87457275 C-168.8843774 20.66406124 -170.94545684 20.34451304 -173 20 C-173.33 19.34 -173.66 18.68 -174 18 C-172.58074219 18.09087891 -172.58074219 18.09087891 -171.1328125 18.18359375 C-169.79687731 18.2682657 -168.46093967 18.35289891 -167.125 18.4375 C-165.84882813 18.51871094 -164.57265625 18.59992188 -163.2578125 18.68359375 C-162.48115234 18.73016113 -161.70449219 18.77672852 -160.90429688 18.82470703 C-158.65004921 18.96076536 -156.3962184 19.10373828 -154.14257812 19.24951172 C-74.35275644 24.29961867 -74.35275644 24.29961867 0 0 Z " fill="#56853A" transform="translate(252,156)"/>
<path d="M0 0 C4.26098173 1.33115872 8.19252688 2.94760844 12.1875 4.9375 C13.72470703 5.69353516 13.72470703 5.69353516 15.29296875 6.46484375 C17.6833134 7.82040717 19.14516327 9.03409521 21 11 C23.59915538 12.19027984 23.59915538 12.19027984 26 13 C25.67 13.66 25.34 14.32 25 15 C22.33333333 14.33333333 19.66666667 13.66666667 17 13 C17 12.34 17 11.68 17 11 C15.02 11.66 13.04 12.32 11 13 C12.36983503 16.16115776 12.9890638 16.9927092 16 19 C17.32 19 18.64 19 20 19 C20.226875 20.11375 20.45375 21.2275 20.6875 22.375 C21.61516198 26.11175857 21.61516198 26.11175857 24.4375 27.5 C27.10448331 28.23853737 27.10448331 28.23853737 30 27 C30 27.99 30 28.98 30 30 C30.99 30 31.98 30 33 30 C33.495 28.515 33.495 28.515 34 27 C34.66666667 29 35.33333333 31 36 33 C41.41507781 36.04598127 45.86520402 36.37559975 52 36 C52 37.32 52 38.64 52 40 C59.81574297 42.62297943 59.81574297 42.62297943 68 43 C68.33 43.66 68.66 44.32 69 45 C70.11375 44.938125 71.2275 44.87625 72.375 44.8125 C74.169375 44.9053125 74.169375 44.9053125 76 45 C76.66 45.99 77.32 46.98 78 48 C75.23735711 48.59732819 72.83967231 49 70 49 C71.1551251 50.38177162 71.1551251 50.38177162 74.3125 50.125 C77.14648763 50.02893262 79.33595099 49.85249568 82 49 C82 49.66 82 50.32 82 51 C83.98 51.495 83.98 51.495 86 52 C86 51.34 86 50.68 86 50 C90.95 50.33 95.9 50.66 101 51 C101 51.33 101 51.66 101 52 C99.72125 52.12375 98.4425 52.2475 97.125 52.375 C93.65209064 52.69042399 93.65209064 52.69042399 91 55 C89.01178687 55.39764263 87.01055661 55.73775349 85 56 C85 56.99 85 57.98 85 59 C77.62922878 58.52446637 70.21013571 57.25412236 64.2109375 52.6171875 C63 51 63 51 63 47 C61.97003906 46.731875 60.94007812 46.46375 59.87890625 46.1875 C44.50075293 42.02311503 30.39709693 36.22111696 18 26 C17.18917969 25.34 16.37835937 24.68 15.54296875 24 C8.52901721 18.04453866 3.08645408 11.74495323 0 3 C0 2.01 0 1.02 0 0 Z " fill="#70A73A" transform="translate(14,156)"/>
<path d="M0 0 C2.60784305 3.1439307 4.81673044 6.25232318 6.8125 9.8125 C9.69566808 14.73084555 13.09465326 18.86356765 17 23 C15.75 24.5 15.75 24.5 14 26 C12.68 26 11.36 26 10 26 C8.64631404 27.31266518 7.31200404 28.64567325 6 30 C5.01 30 4.02 30 3 30 C3.66 30.66 4.32 31.32 5 32 C5 33.32 5 34.64 5 36 C0.99255804 37.00745748 -3.01531576 38.00802099 -7.03515625 38.96484375 C-7.69966797 39.12533203 -8.36417969 39.28582031 -9.04882812 39.45117188 C-10.39408339 39.77606864 -11.74045767 40.09636568 -13.08789062 40.41210938 C-16.47909821 41.23931356 -19.61791668 42.2023578 -22.80859375 43.62890625 C-26 45 -26 45 -29 45 C-28.67 42.36 -28.34 39.72 -28 37 C-26.02 36.505 -26.02 36.505 -24 36 C-24.33 34.68 -24.66 33.36 -25 32 C-16.83807096 26.62054677 -7.73511948 24.43835849 2 25 C1.855625 24.28457031 1.71125 23.56914063 1.5625 22.83203125 C0.13013204 15.14300048 -0.2267563 7.81049489 0 0 Z " fill="#0A4E22" transform="translate(56,100)"/>
<path d="M0 0 C0.99 0.33 1.98 0.66 3 1 C3.80078125 2.9609375 3.80078125 2.9609375 4.3125 5.375 C4.49425781 6.16648437 4.67601562 6.95796875 4.86328125 7.7734375 C5 10 5 10 3 13 C3.99 13.66 4.98 14.32 6 15 C5.57438227 21.85717457 4.06366106 26.51448444 0.9375 32.5625 C-3.17558166 41.12087031 -4.57554003 48.52532392 -3 58 C-2.20529297 59.58554688 -2.20529297 59.58554688 -1.39453125 61.203125 C0 64 0 64 -0.3125 66.375 C-0.539375 66.91125 -0.76625 67.4475 -1 68 C-6.9583627 63.56043564 -10.85006781 59.22986045 -13 52 C-14.38975867 40.78440371 -12.0707974 32.31963877 -7.24609375 22.375 C-6.62164443 21.08369643 -5.99795511 19.79202508 -5.375 18.5 C-4.91359619 17.54951782 -4.91359619 17.54951782 -4.44287109 16.57983398 C-1.89298878 11.15976393 -0.604607 5.9350197 0 0 Z " fill="#6BB229" transform="translate(155,47)"/>
<path d="M0 0 C0.433125 0.474375 0.86625 0.94875 1.3125 1.4375 C3.02309613 3.23686957 3.02309613 3.23686957 6 4 C5.88619182 11.05610708 4.16056099 16.35057072 1.4375 22.75 C-2.44516418 32.09014238 -4.23314724 40.868713 -0.4375 50.6875 C0.036875 51.780625 0.51125 52.87375 1 54 C0.67 54.99 0.34 55.98 0 57 C-6.1613921 52.77504541 -10.45074255 46.32376247 -12 39 C-13.29960628 25.60405836 -8.54603832 15.37140371 -2 4 C-1.32258826 2.67209354 -0.65172841 1.34069844 0 0 Z " fill="#66A232" transform="translate(97,36)"/>
<path d="M0 0 C-0.72316406 0.57105469 -1.44632812 1.14210938 -2.19140625 1.73046875 C-9.07364583 7.29177778 -15.43256987 13.113968 -21 20 C-22.1157177 16.65284689 -22.1807689 15.28928478 -21 12 C-18.6875 10.9375 -18.6875 10.9375 -16 10 C-14.64748503 8.68612831 -13.31054623 7.35573748 -12 6 C-11.34 6 -10.68 6 -10 6 C-9.67 4.68 -9.34 3.36 -9 2 C-16.81663701 1.53307699 -23.50938539 2.84018976 -31 5 C-31.97324219 5.26296875 -32.94648438 5.5259375 -33.94921875 5.796875 C-37.5176445 6.77114549 -37.5176445 6.77114549 -41 8 C-41.33 8.66 -41.66 9.32 -42 10 C-43.79010833 10.64880368 -45.60900617 11.21892154 -47.4375 11.75 C-59.84213461 15.78223938 -71.06140258 23.66792428 -77.6875 35.1875 C-78.120625 36.115625 -78.55375 37.04375 -79 38 C-77.54176788 38.0270043 -76.08339325 38.04639787 -74.625 38.0625 C-73.40683594 38.07990234 -73.40683594 38.07990234 -72.1640625 38.09765625 C-69.95062858 38.14466334 -69.95062858 38.14466334 -68 37 C-68 37.66 -68 38.32 -68 39 C-60.45952096 40.07859862 -60.45952096 40.07859862 -53 39 C-53 38.34 -53 37.68 -53 37 C-49.37 37 -45.74 37 -42 37 C-50.66697914 42.77798609 -62.39969314 43.18759847 -72.38671875 41.390625 C-75.32524392 40.70902626 -78.17062505 40.04720499 -81 39 C-81.33 38.34 -81.66 37.68 -82 37 C-80 34 -78 31 -76 28 C-75.34 28 -74.68 28 -74 28 C-74 27.34 -74 26.68 -74 26 C-72.35546875 24.37890625 -72.35546875 24.37890625 -70.1875 22.5625 C-67.2890025 20.14416223 -67.2890025 20.14416223 -64.6171875 17.48828125 C-60.52655437 13.72371308 -54.89879538 11.54782355 -50 9 C-49.13503906 8.52949219 -48.27007812 8.05898437 -47.37890625 7.57421875 C-44.95324189 6.28770054 -42.50539835 5.12297608 -40 4 C-39.15566406 3.60554688 -38.31132812 3.21109375 -37.44140625 2.8046875 C-25.60331995 -1.78919673 -12.47155517 -0.34840489 0 0 Z " fill="#68A039" transform="translate(246,115)"/>
<path d="M0 0 C0.66 0.33 1.32 0.66 2 1 C1.13375 2.5159375 1.13375 2.5159375 0.25 4.0625 C-6.08360019 16.88804038 -8.26535573 31.04433026 -4.25 44.875 C-2.98096057 48.60934182 -1.53460782 52.08066959 0.3125 55.5625 C2.07087961 59.1443844 2.1818957 59.51531397 1 63 C-9.36661831 54.97787575 -18.1629522 44.01825783 -21 31 C-21.21531251 27.8358108 -21.18510872 24.67083573 -21.1875 21.5 C-21.19974609 20.64535156 -21.21199219 19.79070312 -21.22460938 18.91015625 C-21.22654297 18.08386719 -21.22847656 17.25757812 -21.23046875 16.40625 C-21.23663208 15.28186523 -21.23663208 15.28186523 -21.24291992 14.13476562 C-20.96836704 11.72201143 -20.19750325 10.09540822 -19 8 C-19.01160156 9.25554687 -19.02320312 10.51109375 -19.03515625 11.8046875 C-19.08925203 20.27321259 -19.10340178 28.58656141 -18 37 C-17.34 37 -16.68 37 -16 37 C-15.67 38.65 -15.34 40.3 -15 42 C-13.02 41.505 -13.02 41.505 -11 41 C-10.34 41.99 -9.68 42.98 -9 44 C-7.75248427 42.0065104 -7.75248427 42.0065104 -8.4375 39.625 C-10.62695794 25.51515994 -6.91851353 13.73119097 -1 1 C-0.67 0.67 -0.34 0.34 0 0 Z " fill="#69AB35" transform="translate(131,63)"/>
<path d="M0 0 C0.33 0 0.66 0 1 0 C1 1.98 1 3.96 1 6 C1.99 6.33 2.98 6.66 4 7 C3 9 3 9 0 11 C-0.36362818 13.20725073 -0.36362818 13.20725073 -0.1875 15.625 C-0.16042969 16.44226563 -0.13335937 17.25953125 -0.10546875 18.1015625 C-0.07066406 18.72804688 -0.03585938 19.35453125 0 20 C0.66 20 1.32 20 2 20 C2.18175781 19.02160156 2.18175781 19.02160156 2.3671875 18.0234375 C3.28943989 13.21353658 4.30167277 8.60974535 6 4 C7.32 4 8.64 4 10 4 C9.55836484 6.57620509 9.09189205 8.80354114 7.98046875 11.1796875 C6.72739137 14.78415709 6.67000303 18.16865211 6.6875 21.9375 C6.67138672 22.62779297 6.65527344 23.31808594 6.63867188 24.02929688 C6.63411128 28.84072838 7.82748436 31.79262122 10 36 C9.6875 38.375 9.6875 38.375 9 40 C3.04850854 35.56555538 -0.86547031 31.22894056 -3 24 C-3.95876694 15.4350153 -3.34271844 7.9389563 0 0 Z " fill="#63A330" transform="translate(145,75)"/>
<path d="M0 0 C2 2 2 2 2 6 C-2.00744196 7.00745748 -6.01531576 8.00802099 -10.03515625 8.96484375 C-11.03192383 9.20557617 -11.03192383 9.20557617 -12.04882812 9.45117188 C-13.39408339 9.77606864 -14.74045767 10.09636568 -16.08789062 10.41210938 C-19.47909821 11.23931356 -22.61791668 12.2023578 -25.80859375 13.62890625 C-29 15 -29 15 -32 15 C-31.4264514 11.67341813 -30.64008597 10.11206878 -28 8 C-23.12440407 4.71643539 -19.03748376 3.37526927 -13.234375 2.4921875 C-10.7304247 2.08224791 -10.7304247 2.08224791 -8 0 C-4.66657937 -0.91669067 -3.34350146 -1.11450049 0 0 Z " fill="#5D8B40" transform="translate(59,130)"/>
<path d="M0 0 C0.66 0.33 1.32 0.66 2 1 C0.71240381 7.27703141 -3.32771926 11.81257859 -8 16 C-10.2578125 16.76171875 -10.2578125 16.76171875 -12 17 C-12.33 15.35 -12.66 13.7 -13 12 C-12.34 11.67 -11.68 11.34 -11 11 C-11.33 10.67 -11.66 10.34 -12 10 C-17.02499694 10.28469203 -17.02499694 10.28469203 -21 13 C-23.64453125 13.16015625 -23.64453125 13.16015625 -26.8125 13.0625 C-30.73339559 12.95047441 -34.17764459 13.0885696 -38 14 C-37.67 13.01 -37.34 12.02 -37 11 C-35.09541016 10.67128906 -35.09541016 10.67128906 -33.15234375 10.3359375 C-21.40189841 8.20646997 -10.73147246 5.36573623 0 0 Z " fill="#56A231" transform="translate(247,161)"/>
<path d="M0 0 C3.03716733 0.91821338 5.68302607 1.79980594 8.375 3.5 C11.88426253 5.50529288 15.03016594 6.21904904 19 7 C19.66 6.67 20.32 6.34 21 6 C23.33746522 6.30300475 25.67085177 6.63858045 28 7 C32.27709699 7 33.55930376 6.29379749 37 4 C36.34 3.01 35.68 2.02 35 1 C35.33 0.67 35.66 0.34 36 0 C37.69141656 0.08963062 39.37959602 0.24577676 41.0625 0.4375 C42.44115234 0.59025391 42.44115234 0.59025391 43.84765625 0.74609375 C44.55792969 0.82988281 45.26820312 0.91367188 46 1 C45.67 1.99 45.34 2.98 45 4 C46.65 3.67 48.3 3.34 50 3 C49.34 2.67 48.68 2.34 48 2 C48 1.34 48 0.68 48 0 C50.97 0.33 53.94 0.66 57 1 C57 1.66 57 2.32 57 3 C54.4392555 3.98397585 51.87658508 4.96229967 49.3125 5.9375 C48.59126953 6.21529297 47.87003906 6.49308594 47.12695312 6.77929688 C33.98514928 11.75998052 19.94664224 11.6415536 7 6 C4.3625949 4.49790173 2.31405762 2.99116586 0 1 C0 0.67 0 0.34 0 0 Z " fill="#0B4B24" transform="translate(75,148)"/>
<path d="M0 0 C0.433125 0.474375 0.86625 0.94875 1.3125 1.4375 C3.02309613 3.23686957 3.02309613 3.23686957 6 4 C6 5.98 6 7.96 6 10 C5.01 10 4.02 10 3 10 C3.04125 10.9075 3.0825 11.815 3.125 12.75 C3.00468444 15.8782046 2.6085292 17.38614006 1 20 C0.34 20 -0.32 20 -1 20 C-1.12375 21.11375 -1.2475 22.2275 -1.375 23.375 C-2 27 -2 27 -4 29 C-4.66 28.01 -5.32 27.02 -6 26 C-7.32 27.32 -8.64 28.64 -10 30 C-9.09068323 21.05838509 -9.09068323 21.05838509 -7 17 C-6.34 16.67 -5.68 16.34 -5 16 C-4.49462577 14.38280248 -4.0003762 12.76094763 -3.57421875 11.12109375 C-2.55598279 7.35985481 -1.25438189 3.68788277 0 0 Z " fill="#6EB02F" transform="translate(97,36)"/>
<path d="M0 0 C2.13113362 0.73238958 4.25479751 1.48654314 6.375 2.25 C7.55835938 2.66765625 8.74171875 3.0853125 9.9609375 3.515625 C13 5 13 5 14.4140625 7.171875 C14.60742188 7.77515625 14.80078125 8.3784375 15 9 C14.34 9 13.68 9 13 9 C13 9.66 13 10.32 13 11 C12.34 11 11.68 11 11 11 C10.34 12.32 9.68 13.64 9 15 C4.05 13.35 -0.9 11.7 -6 10 C-5.67 8.35 -5.34 6.7 -5 5 C-4.01 5 -3.02 5 -2 5 C-1.34 3.35 -0.68 1.7 0 0 Z " fill="#13562B" transform="translate(231,130)"/>
<path d="M0 0 C0.66 0 1.32 0 2 0 C2 1.98 2 3.96 2 6 C4.89234315 6.82638376 6.88742431 7 10 7 C8.35126723 10.71633277 6.03199556 13.72188427 3.5625 16.9375 C1.3160978 19.86485443 -0.82758061 22.7118524 -2.72265625 25.87890625 C-3.14417969 26.57886719 -3.56570312 27.27882812 -4 28 C-4.33 28 -4.66 28 -5 28 C-5.58570157 18.05934272 -4.50822099 9.01644198 0 0 Z " fill="#0A4720" transform="translate(162,131)"/>
<path d="M0 0 C1.20527344 0.00322266 2.41054687 0.00644531 3.65234375 0.00976562 C4.90660156 0.01814453 6.16085938 0.02652344 7.453125 0.03515625 C9.35771484 0.04192383 9.35771484 0.04192383 11.30078125 0.04882812 C14.43494336 0.06061069 17.56901041 0.07706209 20.703125 0.09765625 C19.5418811 1.02227661 19.5418811 1.02227661 18.35717773 1.96557617 C11.51498415 7.46211528 5.22396738 13.26924593 -0.296875 20.09765625 C-1.4125927 16.75050314 -1.4776439 15.38694103 -0.296875 12.09765625 C2.015625 11.03515625 2.015625 11.03515625 4.703125 10.09765625 C6.05563997 8.78378456 7.39257877 7.45339373 8.703125 6.09765625 C9.363125 6.09765625 10.023125 6.09765625 10.703125 6.09765625 C11.033125 4.77765625 11.363125 3.45765625 11.703125 2.09765625 C3.88648799 1.63073324 -2.80626039 2.93784601 -10.296875 5.09765625 C-11.27011719 5.360625 -12.24335938 5.62359375 -13.24609375 5.89453125 C-16.8145195 6.86880174 -16.8145195 6.86880174 -20.296875 8.09765625 C-20.626875 8.75765625 -20.956875 9.41765625 -21.296875 10.09765625 C-23.14453125 10.73046875 -23.14453125 10.73046875 -25.359375 11.22265625 C-26.09285156 11.39023438 -26.82632813 11.5578125 -27.58203125 11.73046875 C-28.14792969 11.85164063 -28.71382812 11.9728125 -29.296875 12.09765625 C-21.81775181 4.06452393 -10.85542382 -0.05120483 0 0 Z " fill="#6E9E40" transform="translate(225.296875,114.90234375)"/>
<path d="M0 0 C0.66 0.66 1.32 1.32 2 2 C0.27473958 2.68359375 -1.45052083 3.3671875 -3.17578125 4.05078125 C-5.06925675 4.90389769 -5.06925675 4.90389769 -6.375 6.5 C-8.61220151 8.56510909 -10.75282164 8.96246182 -13.6875 9.6875 C-14.68136719 9.93886719 -15.67523438 10.19023437 -16.69921875 10.44921875 C-17.45847656 10.63097656 -18.21773437 10.81273437 -19 11 C-19 11.9075 -19 12.815 -19 13.75 C-20 17 -20 17 -21.53125 18.21875 C-26.23108126 20.68056637 -31.6646988 22.71220367 -37 23 C-37.66 22.34 -38.32 21.68 -39 21 C-35.7 20.34 -32.4 19.68 -29 19 C-28.67 18.01 -28.34 17.02 -28 16 C-29.98 15.34 -31.96 14.68 -34 14 C-33.67 13.34 -33.34 12.68 -33 12 C-32.34 12.33 -31.68 12.66 -31 13 C-31 12.34 -31 11.68 -31 11 C-22.68214634 8.60785814 -14.35715006 6.25131389 -6 4 C-6 3.34 -6 2.68 -6 2 C-4.02 1.34 -2.04 0.68 0 0 Z " fill="#529234" transform="translate(210,192)"/>
<path d="M0 0 C-0.66 0.66 -1.32 1.32 -2 2 C-2.433125 3.175625 -2.433125 3.175625 -2.875 4.375 C-4.14042412 7.32765629 -5.71251146 8.78399548 -8 11 C-9.23512079 13.13309192 -9.23512079 13.13309192 -10 15 C-8.35 14.34 -6.7 13.68 -5 13 C-3.39968656 16.20062687 -4.96826309 18.72271806 -6 22 C-8.3125 21.8125 -8.3125 21.8125 -11 21 C-12.6875 18.4375 -12.6875 18.4375 -14 16 C-14.66 16 -15.32 16 -16 16 C-16.3125 12.8125 -16.3125 12.8125 -16 9 C-13.75 6.3125 -13.75 6.3125 -11 4 C-10.01 2.88625 -10.01 2.88625 -9 1.75 C-6.15459739 -0.73972728 -3.48733641 -1.7436682 0 0 Z " fill="#055224" transform="translate(30,134)"/>
<path d="M0 0 C0.99 0.33 1.98 0.66 3 1 C3.80078125 2.9609375 3.80078125 2.9609375 4.3125 5.375 C4.49425781 6.16648437 4.67601562 6.95796875 4.86328125 7.7734375 C5 10 5 10 3 13 C3.99 13.66 4.98 14.32 6 15 C5.63495936 20.66442374 4.9445679 25.00703705 2 30 C0.39919849 25.99799622 1.70720308 22.95443764 3 19 C1.02 19 -0.96 19 -3 19 C-3.7115625 20.670625 -3.7115625 20.670625 -4.4375 22.375 C-5.25306463 24.26710994 -6.07856355 26.15712709 -7 28 C-7.66 28 -8.32 28 -9 28 C-7.83062745 24.06665595 -6.28709268 20.49211855 -4.5 16.8125 C-1.94010548 11.3151454 -0.77622901 5.98970745 0 0 Z " fill="#67A52C" transform="translate(155,47)"/>
<path d="M0 0 C-1 3 -1 3 -3.04467773 4.07568359 C-10.29703754 6.62007228 -17.50153491 8.28161403 -25.0625 9.625 C-27.28260043 10.03359158 -29.50265323 10.44244204 -31.72265625 10.8515625 C-33.32512207 11.13845947 -33.32512207 11.13845947 -34.95996094 11.43115234 C-37.68510968 11.94107818 -40.37764681 12.53254174 -43.08203125 13.140625 C-48.6013867 14.25777692 -54.01348956 14.22239604 -59.625 14.125 C-61.13126953 14.11146484 -61.13126953 14.11146484 -62.66796875 14.09765625 C-65.11224126 14.07437746 -67.55598408 14.04168487 -70 14 C-70 13.67 -70 13.34 -70 13 C-69.27337158 12.94054199 -68.54674316 12.88108398 -67.7980957 12.81982422 C-53.46078609 11.60234684 -39.40717124 9.96754347 -25.3125 7.0625 C-24.12760986 6.82192871 -22.94271973 6.58135742 -21.72192383 6.33349609 C-15.50390002 4.99608628 -9.74578343 3.32037433 -3.91479492 0.76733398 C-2 0 -2 0 0 0 Z " fill="#40752D" transform="translate(242,162)"/>
<path d="M0 0 C0 0.33 0 0.66 0 1 C-0.80824219 1.06058594 -1.61648437 1.12117188 -2.44921875 1.18359375 C-4.05216797 1.30927734 -4.05216797 1.30927734 -5.6875 1.4375 C-6.74324219 1.51871094 -7.79898438 1.59992188 -8.88671875 1.68359375 C-11.65086297 1.96451681 -14.28945741 2.40156852 -17 3 C-17 3.66 -17 4.32 -17 5 C-18.7015625 5.2165625 -18.7015625 5.2165625 -20.4375 5.4375 C-23.80777201 5.61171478 -23.80777201 5.61171478 -25 7 C-26.093125 7.309375 -27.18625 7.61875 -28.3125 7.9375 C-31.15918055 8.75772999 -33.49797903 9.46029479 -36 11 C-36.33 11.66 -36.66 12.32 -37 13 C-37.99 13.33 -38.98 13.66 -40 14 C-40.33 14.99 -40.66 15.98 -41 17 C-43.82466759 20.13003705 -46.27127437 22.13563719 -50 24 C-50.33 24.99 -50.66 25.98 -51 27 C-50.125 22.25 -50.125 22.25 -49 20 C-48.34 20 -47.68 20 -47 20 C-46.76539063 19.4328125 -46.53078125 18.865625 -46.2890625 18.28125 C-41.6908529 10.14381241 -32.79142435 4.7976081 -24.10546875 2.1015625 C-16.00875794 -0.03275788 -8.33967524 -0.33758805 0 0 Z " fill="#104022" transform="translate(215,103)"/>
<path d="M0 0 C4.02848145 2.42224258 5.10942478 5.02409231 6.6875 9.375 C7.10386719 10.49648438 7.52023438 11.61796875 7.94921875 12.7734375 C9.74059474 18.27409389 10.18221201 23.29330616 10.1875 29.0625 C10.19974609 29.76955078 10.21199219 30.47660156 10.22460938 31.20507812 C10.23550804 35.07410505 9.8721297 37.64203836 8 41 C7.98598145 40.0867395 7.98598145 40.0867395 7.97167969 39.1550293 C7.965624 24.20733424 7.965624 24.20733424 3.83984375 10.0234375 C3 8 3 8 3 4 C2.34 4 1.68 4 1 4 C1.04640625 5.08796875 1.0928125 6.1759375 1.140625 7.296875 C1.74415496 27.72368446 1.74415496 27.72368446 -4.63671875 34.8203125 C-5.31154297 35.40425781 -5.31154297 35.40425781 -6 36 C-5.80664062 35.31035156 -5.61328125 34.62070312 -5.4140625 33.91015625 C-4.59230268 30.94449829 -3.79389861 27.97322813 -3 25 C-2.79890625 24.28328125 -2.5978125 23.5665625 -2.390625 22.828125 C-0.48103867 15.36337844 -0.35730909 7.66333966 0 0 Z " fill="#699437" transform="translate(131,6)"/>
<path d="M0 0 C0.33 0.66 0.66 1.32 1 2 C3.02463255 2.65213292 3.02463255 2.65213292 5 3 C5 2.34 5 1.68 5 1 C9.95 1.33 14.9 1.66 20 2 C20 2.33 20 2.66 20 3 C18.72125 3.12375 17.4425 3.2475 16.125 3.375 C12.65209064 3.69042399 12.65209064 3.69042399 10 6 C3.12997594 8.66388688 -2.80339076 8.4020216 -9.5625 5.4375 C-10.366875 4.963125 -11.17125 4.48875 -12 4 C-12 3.34 -12 2.68 -12 2 C-8.04 1.34 -4.08 0.68 0 0 Z " fill="#6DB339" transform="translate(95,205)"/>
<path d="M0 0 C2.67053989 0.363378 3.77260595 0.74591911 5.59765625 2.78515625 C9.93990624 9.53590757 13.62407556 15.67899257 13 24 C4.04933087 24.73066687 -4.58028012 21.80657329 -13 19 C-13 18.34 -13 17.68 -13 17 C-14.093125 16.690625 -15.18625 16.38125 -16.3125 16.0625 C-18.55407994 15.41662103 -20.7869351 14.7376883 -23 14 C-23.33 13.34 -23.66 12.68 -24 12 C-24.99 11.34 -25.98 10.68 -27 10 C-22.91559985 10.61340808 -19.77669499 11.96853067 -16.125 13.875 C-15.0628125 14.41511719 -14.000625 14.95523438 -12.90625 15.51171875 C-11.9471875 16.00285156 -10.988125 16.49398437 -10 17 C-3.31939054 20.34030473 3.7179332 21.57590649 11 23 C9.23445791 15.19142359 7.12978178 8.12978178 1.34375 2.34375 C0.9003125 1.9003125 0.456875 1.456875 0 1 C0 0.67 0 0.34 0 0 Z " fill="#5A8831" transform="translate(112,123)"/>
<path d="M0 0 C0.625 1.8125 0.625 1.8125 1 4 C0.01 5.485 0.01 5.485 -1 7 C-1.70164642 8.98799818 -2.37372872 10.98698517 -3 13 C-3.66 13 -4.32 13 -5 13 C-7.89403989 22.04387465 -8.52612267 32.07053827 -5 41 C-4.0436126 42.69207001 -3.05589069 44.36816893 -2 46 C-1.34 45.01 -0.68 44.02 0 43 C3.125 49.625 3.125 49.625 2 53 C-4.1613921 48.77504541 -8.45074255 42.32376247 -10 35 C-11.2912135 21.69056859 -6.65300594 11.26575673 0 0 Z " fill="#659735" transform="translate(95,40)"/>
<path d="M0 0 C1.35544922 0.10828125 1.35544922 0.10828125 2.73828125 0.21875 C3.91777344 0.3115625 5.09726563 0.404375 6.3125 0.5 C7.48425781 0.5928125 8.65601563 0.685625 9.86328125 0.78125 C11.905194 0.92364989 13.9531279 1 16 1 C12.94941586 4.51990478 10.42246106 5.68267117 6 7 C5.01 7.66 4.02 8.32 3 9 C0.24582682 9.30066154 -2.42645147 9.50925299 -5.1875 9.625 C-5.93708984 9.66367188 -6.68667969 9.70234375 -7.45898438 9.7421875 C-9.30559199 9.83628216 -11.1527619 9.91922319 -13 10 C-12.67 9.34 -12.34 8.68 -12 8 C-8.5 7.5 -8.5 7.5 -5 7 C-2.21036819 6.17051656 0.31464801 5.15747931 3 4 C3.33 3.34 3.66 2.68 4 2 C2.35 2 0.7 2 -1 2 C-0.67 1.34 -0.34 0.68 0 0 Z " fill="#55A430" transform="translate(167,207)"/>
<path d="M0 0 C0.66 0.33 1.32 0.66 2 1 C1.4225 2.010625 0.845 3.02125 0.25 4.0625 C-6.17752805 17.0782443 -8.29705522 31.28457055 -4 45.25 C-3.443125 46.83554688 -3.443125 46.83554688 -2.875 48.453125 C-2 51 -2 51 -2 53 C-2.66 53 -3.32 53 -4 53 C-10.96376244 34.79704888 -9.63512287 21.13371392 -2.0859375 3.3359375 C-1 1 -1 1 0 0 Z " fill="#5F9135" transform="translate(131,63)"/>
<path d="M0 0 C2.47923801 -0.02685095 4.9581884 -0.04676547 7.4375 -0.0625 C8.14455078 -0.07087891 8.85160156 -0.07925781 9.58007812 -0.08789062 C11.38693559 -0.09653588 13.19387603 -0.05220011 15 0 C15.33 0.33 15.66 0.66 16 1 C17.41913796 1.21604955 18.8476359 1.37129326 20.27734375 1.5 C21.62481689 1.6230249 21.62481689 1.6230249 22.99951172 1.74853516 C23.96904785 1.83151855 24.93858398 1.91450195 25.9375 2 C26.91992676 2.08685059 27.90235352 2.17370117 28.91455078 2.26318359 C37.93358938 3.03865505 46.9583613 3.57582436 56 4 C56 4.33 56 4.66 56 5 C51.57203834 5.86531159 47.44429404 6.07846431 42.9375 6 C38.77871393 5.92775182 35.05017511 6.01999544 31 7 C31 6.34 31 5.68 31 5 C29.44539063 5.05220703 29.44539063 5.05220703 27.859375 5.10546875 C26.48959958 5.13361482 25.11980659 5.16091411 23.75 5.1875 C23.06808594 5.21263672 22.38617188 5.23777344 21.68359375 5.26367188 C17.30731639 5.32740407 15.31871239 4.74999595 12 2 C9.73884609 1.71330273 9.73884609 1.71330273 7.4375 1.9375 C3.79239149 2.17722889 3.23132509 2.15421673 0 0 Z " fill="#6CAB39" transform="translate(63,174)"/>
<path d="M0 0 C-0.96421875 0.40992187 -1.9284375 0.81984375 -2.921875 1.2421875 C-4.19794431 1.78639353 -5.47398444 2.33066797 -6.75 2.875 C-7.38421875 3.14441406 -8.0184375 3.41382812 -8.671875 3.69140625 C-11.25165994 4.7931894 -13.80936529 5.90420043 -16.31640625 7.1640625 C-18 8 -18 8 -20.1875 8.5 C-20.785625 8.665 -21.38375 8.83 -22 9 C-22.33 9.66 -22.66 10.32 -23 11 C-28.41176471 15 -28.41176471 15 -32 15 C-32 15.66 -32 16.32 -32 17 C-33.65 17.66 -35.3 18.32 -37 19 C-36.828125 17.1875 -36.828125 17.1875 -36 15 C-33.671875 13.4375 -33.671875 13.4375 -30.75 12 C-26.78583937 9.96907465 -23.37512975 7.93962913 -20 5 C-19.34 4.67 -18.68 4.34 -18 4 C-17.67 3.34 -17.34 2.68 -17 2 C-16.34 2 -15.68 2 -15 2 C-13.49532347 1.71085507 -11.99566284 1.3951393 -10.5 1.0625 C-9.7059375 0.88847656 -8.911875 0.71445313 -8.09375 0.53515625 C-2.76024177 -0.82807253 -2.76024177 -0.82807253 0 0 Z " fill="#154D17" transform="translate(211,118)"/>
<path d="M0 0 C-2.91841867 2.91841867 -6.04977557 2.67725273 -10 3 C-11.04526855 3.0913623 -12.09053711 3.18272461 -13.16748047 3.27685547 C-25.13788365 4.17578109 -37.00950351 3.90567223 -49 3.5625 C-51.04685832 3.50912204 -53.09373342 3.45638354 -55.140625 3.40429688 C-60.09397387 3.27688423 -65.04701673 3.14088401 -70 3 C-70 2.67 -70 2.34 -70 2 C-69.39802292 1.98969254 -68.79604584 1.97938507 -68.17582703 1.96876526 C-61.86443956 1.85990274 -55.5531722 1.74537848 -49.24194336 1.62768555 C-46.89203423 1.58459016 -44.54209888 1.5428993 -42.19213867 1.50268555 C-38.79858525 1.44436222 -35.40516077 1.38085243 -32.01171875 1.31640625 C-30.45634651 1.29133751 -30.45634651 1.29133751 -28.86955261 1.26576233 C-23.04094598 1.14953351 -17.28939244 0.82079648 -11.49055481 0.21372986 C-7.65088749 -0.11577566 -3.85153903 -0.06313998 0 0 Z " fill="#579B34" transform="translate(189,176)"/>
<path d="M0 0 C0.33 0 0.66 0 1 0 C0.98839844 1.25554687 0.97679688 2.51109375 0.96484375 3.8046875 C0.91074797 12.27321259 0.89659822 20.58656141 2 29 C2.66 29 3.32 29 4 29 C4.33 30.65 4.66 32.3 5 34 C5.66 34 6.32 34 7 34 C7.25523438 34.72574219 7.51046875 35.45148438 7.7734375 36.19921875 C9.06801074 39.1552984 10.60455104 41.30564666 12.625 43.8125 C13.25664063 44.60269531 13.88828125 45.39289063 14.5390625 46.20703125 C15.02117187 46.79871094 15.50328125 47.39039063 16 48 C15.67 48.66 15.34 49.32 15 50 C2.55880735 36.07771299 -1.70941527 24.58602784 -1.17700195 6.02368164 C-0.9937943 3.92904961 -0.56390853 2.02263519 0 0 Z " fill="#698F41" transform="translate(111,71)"/>
<path d="M0 0 C0 0.33 0 0.66 0 1 C4.61067609 1.73580837 9.03565516 2.1281006 13.703125 2.1328125 C14.9303125 2.13410156 16.1575 2.13539063 17.421875 2.13671875 C18.68515625 2.13285156 19.9484375 2.12898437 21.25 2.125 C22.52875 2.12886719 23.8075 2.13273438 25.125 2.13671875 C26.34703125 2.13542969 27.5690625 2.13414062 28.828125 2.1328125 C29.9409082 2.13168457 31.05369141 2.13055664 32.20019531 2.12939453 C35.08332382 2.1233884 35.08332382 2.1233884 38 1 C38.495 2.485 38.495 2.485 39 4 C34.18434077 4.05036085 29.36884288 4.08616083 24.55297852 4.10986328 C22.92306847 4.11976961 21.29317542 4.1332984 19.66333008 4.15087891 C8.28085957 4.27036146 -2.72770352 3.6014298 -14 2 C-13.67 1.34 -13.34 0.68 -13 0 C-8.42537741 -1.19811544 -4.61967708 -0.83154187 0 0 Z " fill="#6A9A44" transform="translate(114,214)"/>
<path d="M0 0 C5 2 5 2 10 4 C9.71125 5.175625 9.4225 6.35125 9.125 7.5625 C8.73239333 10.40134823 8.71014392 11.55914106 10.3046875 13.984375 C11.41344256 15.17999105 12.56174555 16.34039035 13.75 17.45703125 C14.1625 17.96621094 14.575 18.47539063 15 19 C14.67 19.99 14.34 20.98 14 22 C1.49152542 8.27118644 1.49152542 8.27118644 0 0 Z " fill="#73BC41" transform="translate(57,100)"/>
<path d="M0 0 C1.45880109 0.14107747 2.91703551 0.28802415 4.375 0.4375 C5.59316406 0.55931641 5.59316406 0.55931641 6.8359375 0.68359375 C9 1 9 1 11 2 C11.33 2.99 11.66 3.98 12 5 C12.66 5.33 13.32 5.66 14 6 C13.67 7.32 13.34 8.64 13 10 C8.38 8.35 3.76 6.7 -1 5 C-0.67 3.35 -0.34 1.7 0 0 Z " fill="#70A849" transform="translate(226,135)"/>
<path d="M0 0 C8.1590641 1.29305582 16.23608691 2.830004 24.3125 4.5625 C30.52615368 5.89372 36.69208129 7.20817382 43 8 C43 8.33 43 8.66 43 9 C31.97831223 9.80646496 21.69645276 7.38686424 11 5 C11 4.34 11 3.68 11 3 C9.741875 3.061875 8.48375 3.12375 7.1875 3.1875 C5.04296875 3.29296875 5.04296875 3.29296875 3 3 C1.37231445 1.48168945 1.37231445 1.48168945 0 0 Z " fill="#5E8935" transform="translate(32,165)"/>
<path d="M0 0 C0.66 0.33 1.32 0.66 2 1 C0.40671875 1.87011719 0.40671875 1.87011719 -1.21875 2.7578125 C-13.08324631 9.29135417 -24.54398691 16.03245914 -32.63671875 27.2734375 C-33.08660156 27.84320313 -33.53648437 28.41296875 -34 29 C-34.66 29 -35.32 29 -36 29 C-34.79618552 26.50638429 -33.54571278 24.31856917 -32 22 C-31.34 22 -30.68 22 -30 22 C-30 21.34 -30 20.68 -30 20 C-28.35546875 18.37890625 -28.35546875 18.37890625 -26.1875 16.5625 C-23.29417016 14.15050289 -23.29417016 14.15050289 -20.6328125 11.49609375 C-18.24631553 9.30942308 -15.54635077 8.00361701 -12.6875 6.5 C-11.02267578 5.61828125 -11.02267578 5.61828125 -9.32421875 4.71875 C-8.22722656 4.1515625 -7.13023437 3.584375 -6 3 C-4.91332031 2.4121875 -3.82664063 1.824375 -2.70703125 1.21875 C-1.81371094 0.8165625 -0.92039063 0.414375 0 0 Z " fill="#56832E" transform="translate(202,121)"/>
<path d="M0 0 C8.15857498 0.36260333 14.79497902 4.50008364 21.125 9.4375 C23.55335968 12.75625822 24.07331503 14.89435837 24 19 C22.1875 21.9375 22.1875 21.9375 20 24 C19.34 24 18.68 24 18 24 C18.309375 23.4225 18.61875 22.845 18.9375 22.25 C20.48966108 18.96307065 21.34259213 17.13711431 20.265625 13.5625 C16.73651445 6.41714036 7.07779909 3.51195375 0 1 C0 0.67 0 0.34 0 0 Z " fill="#093719" transform="translate(232,130)"/>
<path d="M0 0 C7.20773928 1.58570264 13.54031293 3.39748221 20 7 C19.67 7.66 19.34 8.32 19 9 C16.33333333 8.33333333 13.66666667 7.66666667 11 7 C11 6.34 11 5.68 11 5 C9.02 5.66 7.04 6.32 5 7 C4.67 6.34 4.34 5.68 4 5 C3.67 5.66 3.34 6.32 3 7 C2.34 7 1.68 7 1 7 C0.67 4.69 0.34 2.38 0 0 Z " fill="#77B436" transform="translate(20,162)"/>
<path d="M0 0 C4.35970831 1.34849837 8.31341438 3.04907846 12.375 5.125 C13.43460938 5.66382813 14.49421875 6.20265625 15.5859375 6.7578125 C16.38257812 7.16773438 17.17921875 7.57765625 18 8 C18 8.33 18 8.66 18 9 C17.37351562 8.9278125 16.74703125 8.855625 16.1015625 8.78125 C14.87566406 8.64203125 14.87566406 8.64203125 13.625 8.5 C12.81289063 8.4071875 12.00078125 8.314375 11.1640625 8.21875 C9.03087175 7.96647649 9.03087175 7.96647649 7 8 C6.34 8.66 5.68 9.32 5 10 C0 3.63636364 0 3.63636364 0 0 Z " fill="#68A036" transform="translate(14,156)"/>
<path d="M0 0 C1.16015625 0.09345703 2.3203125 0.18691406 3.515625 0.28320312 C4.7221875 0.38697266 5.92875 0.49074219 7.171875 0.59765625 C9.00492188 0.74750977 9.00492188 0.74750977 10.875 0.90039062 C13.89115789 1.14780983 16.90668194 1.40128564 19.921875 1.66015625 C19.591875 2.65015625 19.261875 3.64015625 18.921875 4.66015625 C16.40079397 4.51791038 13.88007097 4.37145504 11.359375 4.22265625 C10.65490234 4.18333984 9.95042969 4.14402344 9.22460938 4.10351562 C4.74528056 3.83516874 0.36411063 3.31989421 -4.078125 2.66015625 C-5.74441455 2.62470328 -7.41222303 2.60967437 -9.078125 2.66015625 C-9.408125 2.00015625 -9.738125 1.34015625 -10.078125 0.66015625 C-6.5873529 -0.46292971 -3.63514828 -0.30292902 0 0 Z " fill="#0C3E21" transform="translate(79.078125,160.33984375)"/>
<path d="M0 0 C6.81520452 0.29631324 11.38350782 3.30464197 17 7 C16.67 7.66 16.34 8.32 16 9 C14.989375 8.484375 13.97875 7.96875 12.9375 7.4375 C9.0413371 5.73591049 6.15707428 6.06677924 2 7 C2 5.68 2 4.36 2 3 C1.34 2.67 0.68 2.34 0 2 C0 1.34 0 0.68 0 0 Z " fill="#70AE37" transform="translate(91,110)"/>
<path d="M0 0 C2.10162658 1.81504114 2.98750248 2.96500695 3.9375 5.625 C4.288125 6.40875 4.63875 7.1925 5 8 C6.32796291 8.35412344 7.66216607 8.68521554 9 9 C11.125 11.4375 11.125 11.4375 13 14 C13.66 14.66 14.32 15.32 15 16 C15 16.99 15 17.98 15 19 C11.21781873 17.46294916 9.0630744 15.15470258 6.375 12.125 C5.59898438 11.26132813 4.82296875 10.39765625 4.0234375 9.5078125 C1.3641501 6.21193893 0 4.26390139 0 0 Z " fill="#7AA543" transform="translate(16,161)"/>
<path d="M0 0 C0 0.99 0 1.98 0 3 C-1.87144695 3.82065069 -3.74734336 4.6311584 -5.625 5.4375 C-6.66914063 5.88996094 -7.71328125 6.34242188 -8.7890625 6.80859375 C-11.88685251 7.95801705 -14.73210054 8.57311223 -18 9 C-17.34 8.01 -16.68 7.02 -16 6 C-16.99 5.67 -17.98 5.34 -19 5 C-18.67 4.01 -18.34 3.02 -18 2 C-17.443125 2.144375 -16.88625 2.28875 -16.3125 2.4375 C-15.1678125 2.7159375 -15.1678125 2.7159375 -14 3 C-13.278125 3.268125 -12.55625 3.53625 -11.8125 3.8125 C-7.37045502 4.10863633 -3.89767147 1.97855654 0 0 Z " fill="#0E481E" transform="translate(247,155)"/>
<path d="M0 0 C0 0.99 0 1.98 0 3 C-6 5 -6 5 -12 7 C-12.33 7.66 -12.66 8.32 -13 9 C-14.84765625 9.6328125 -14.84765625 9.6328125 -17.0625 10.125 C-17.79597656 10.29257813 -18.52945313 10.46015625 -19.28515625 10.6328125 C-19.85105469 10.75398438 -20.41695312 10.87515625 -21 11 C-16.03838879 5.67086203 -7.58663038 0 0 0 Z " fill="#70A73C" transform="translate(217,116)"/>
<path d="M0 0 C0.33 0 0.66 0 1 0 C1.28875 1.2375 1.5775 2.475 1.875 3.75 C2.46506031 6.1611817 3.02345753 8.04444585 4.1875 10.25 C5.248268 12.53473108 4.6871232 13.64136434 4 16 C2.84775972 15.07038578 1.70340824 14.1309875 0.5625 13.1875 C-0.07558594 12.66542969 -0.71367187 12.14335938 -1.37109375 11.60546875 C-3 10 -3 10 -4 7 C-3.01 6.34 -2.02 5.68 -1 5 C-0.27034634 2.43717258 -0.27034634 2.43717258 0 0 Z " fill="#608C3C" transform="translate(150,99)"/>
<path d="M0 0 C0.433125 0.474375 0.86625 0.94875 1.3125 1.4375 C3.02309613 3.23686957 3.02309613 3.23686957 6 4 C6 5.98 6 7.96 6 10 C4.68 10 3.36 10 2 10 C1.67 10.99 1.34 11.98 1 13 C0.87625 12.360625 0.7525 11.72125 0.625 11.0625 C0.41875 10.381875 0.2125 9.70125 0 9 C-0.66 8.67 -1.32 8.34 -2 8 C-1.34 5.36 -0.68 2.72 0 0 Z " fill="#69AD2A" transform="translate(97,36)"/>
<path d="M0 0 C0 0.33 0 0.66 0 1 C-0.80824219 1.06058594 -1.61648437 1.12117188 -2.44921875 1.18359375 C-4.05216797 1.30927734 -4.05216797 1.30927734 -5.6875 1.4375 C-6.74324219 1.51871094 -7.79898438 1.59992188 -8.88671875 1.68359375 C-11.65086297 1.96451681 -14.28945741 2.40156852 -17 3 C-17 3.66 -17 4.32 -17 5 C-19.31 5.33 -21.62 5.66 -24 6 C-24 5.34 -24 4.68 -24 4 C-24.99 3.67 -25.98 3.34 -27 3 C-17.84802826 0.44596137 -9.48839486 -0.38408795 0 0 Z " fill="#114729" transform="translate(215,103)"/>
<path d="M0 0 C5.26053037 -0.31563182 8.44573816 0.33409063 13 3 C13 3.66 13 4.32 13 5 C13.56589844 5.10957031 14.13179687 5.21914062 14.71484375 5.33203125 C15.44832031 5.49058594 16.18179688 5.64914063 16.9375 5.8125 C17.66839844 5.96332031 18.39929688 6.11414063 19.15234375 6.26953125 C19.76207031 6.51058594 20.37179688 6.75164062 21 7 C21.33 7.99 21.66 8.98 22 10 C14.33204498 7.66062389 7.22862726 4.45231194 0 1 C0 0.67 0 0.34 0 0 Z " fill="#76A149" transform="translate(43,189)"/>
<path d="M0 0 C2.67053989 0.363378 3.77260595 0.74591911 5.59765625 2.78515625 C13.71241545 15.40090188 13.71241545 15.40090188 13 23 C10.62566412 20.39953689 9.57800493 17.93376057 8.5625 14.625 C6.84166846 9.14716976 4.16727558 4.9589118 0 1 C0 0.67 0 0.34 0 0 Z " fill="#6C973B" transform="translate(112,123)"/>
<path d="M0 0 C0 0.33 0 0.66 0 1 C-7.59 1 -15.18 1 -23 1 C-23 0.67 -23 0.34 -23 0 C-6.73207547 -3.80377358 -6.73207547 -3.80377358 0 0 Z " fill="#135E19" transform="translate(244,114)"/>
<path d="M0 0 C1.32 0 2.64 0 4 0 C3.55171782 2.61497941 3.03223556 4.92344056 2 7.375 C0.78812551 10.55617053 0.39655973 13.62924226 0 17 C-0.66 16.01 -1.32 15.02 -2 14 C-2.66 13.67 -3.32 13.34 -4 13 C-2.68 8.71 -1.36 4.42 0 0 Z " fill="#699D37" transform="translate(151,79)"/>
<path d="M0 0 C0.66 0 1.32 0 2 0 C2.268125 0.886875 2.53625 1.77375 2.8125 2.6875 C3.91710819 5.76877548 5.22849144 8.26221405 7 11 C7.66 10.01 8.32 9.02 9 8 C12.125 14.625 12.125 14.625 11 18 C5.34577039 14.12281398 1.73633535 9.17190613 0.1875 2.5 C0.125625 1.675 0.06375 0.85 0 0 Z " fill="#618B38" transform="translate(86,75)"/>
<path d="M0 0 C3.96 1.98 3.96 1.98 8 4 C8 4.66 8 5.32 8 6 C8.804375 6.185625 8.804375 6.185625 9.625 6.375 C12.4638286 7.12206016 15.22223202 8.05303364 18 9 C17.67 9.66 17.34 10.32 17 11 C10.375 10.25 10.375 10.25 7 8 C7 7.34 7 6.68 7 6 C6.401875 5.896875 5.80375 5.79375 5.1875 5.6875 C2.68741714 4.90175967 1.62464918 4.03081147 0 2 C0 1.34 0 0.68 0 0 Z " fill="#185C1E" transform="translate(81,131)"/>
<path d="M0 0 C0.99 0.33 1.98 0.66 3 1 C-4.02879598 4.75922122 -11.15033361 5.24919576 -19 5 C-15.91857979 1.91857979 -12.15785504 1.08942462 -7.83203125 0.91015625 C-5.88794819 0.93494419 -3.94396188 0.96705149 -2 1 C-1.34 0.67 -0.68 0.34 0 0 Z " fill="#144020" transform="translate(220,165)"/>
<path d="M0 0 C-7.64110363 3.80209504 -15.431515 7.11173655 -24 5 C-24 4.67 -24 4.34 -24 4 C-22.80761719 3.72285156 -21.61523438 3.44570312 -20.38671875 3.16015625 C-18.82029523 2.79434477 -17.25388993 2.42845529 -15.6875 2.0625 C-14.90181641 1.88009766 -14.11613281 1.69769531 -13.30664062 1.50976562 C-12.54931641 1.33251953 -11.79199219 1.15527344 -11.01171875 0.97265625 C-10.31522217 0.81031494 -9.61872559 0.64797363 -8.90112305 0.48071289 C-3.14274594 -0.97533495 -3.14274594 -0.97533495 0 0 Z " fill="#08371C" transform="translate(234,153)"/>
<path d="M0 0 C7.40788271 1.07626117 14.71500286 2.27135661 22 4 C22 4.33 22 4.66 22 5 C19.77090129 5.02714735 17.54170633 5.04646254 15.3125 5.0625 C14.07113281 5.07410156 12.82976562 5.08570312 11.55078125 5.09765625 C5.80941862 4.93975299 5.80941862 4.93975299 3 4 C1.1875 1.9375 1.1875 1.9375 0 0 Z " fill="#789F40" transform="translate(68,105)"/>
<path d="M0 0 C1.5 1.375 1.5 1.375 3 3 C3 3.66 3 4.32 3 5 C0.90134492 5.72450004 -1.20417615 6.42913792 -3.3125 7.125 C-4.48425781 7.51945313 -5.65601563 7.91390625 -6.86328125 8.3203125 C-7.89839844 8.54460937 -8.93351563 8.76890625 -10 9 C-10.99 8.34 -11.98 7.68 -13 7 C-12.30132812 6.90203125 -11.60265625 6.8040625 -10.8828125 6.703125 C-9.51769531 6.47882813 -9.51769531 6.47882813 -8.125 6.25 C-7.22007812 6.11078125 -6.31515625 5.9715625 -5.3828125 5.828125 C-2.84854602 5.22669131 -2.84854602 5.22669131 -1.7421875 2.984375 C-1.49726563 2.32953125 -1.25234375 1.6746875 -1 1 C-0.67 0.67 -0.34 0.34 0 0 Z " fill="#4C8B30" transform="translate(184,206)"/>
<path d="M0 0 C1.99960012 0.039992 4.00047242 0.04346799 6 0 C5.01 1.485 5.01 1.485 4 3 C1.35546875 3.2578125 1.35546875 3.2578125 -1.8125 3.125 C-5.74635761 2.97839661 -9.16405281 3.0782382 -13 4 C-12.67 3.01 -12.34 2.02 -12 1 C-10.37681021 0.63762737 -8.7513642 0.28534843 -7.125 -0.0625 C-6.22007812 -0.25972656 -5.31515625 -0.45695313 -4.3828125 -0.66015625 C-2 -1 -2 -1 0 0 Z " fill="#4E9E30" transform="translate(222,171)"/>
<path d="M0 0 C0.33 0.66 0.66 1.32 1 2 C3.01669827 3.13350534 3.01669827 3.13350534 5 4 C4.67 4.99 4.34 5.98 4 7 C2.15234375 7.73046875 2.15234375 7.73046875 -0.0625 8.1875 C-0.79597656 8.34605469 -1.52945313 8.50460938 -2.28515625 8.66796875 C-2.85105469 8.77753906 -3.41695312 8.88710937 -4 9 C-3.47731534 6.23723823 -2.89130413 3.6739124 -2 1 C-1.34 0.67 -0.68 0.34 0 0 Z " fill="#125E27" transform="translate(44,126)"/>
<path d="M0 0 C0 0.99 0 1.98 0 3 C-2.31 3.66 -4.62 4.32 -7 5 C-6.01 5.66 -5.02 6.32 -4 7 C-5.65 7.33 -7.3 7.66 -9 8 C-9.33 6.02 -9.66 4.04 -10 2 C-3.375 -1.125 -3.375 -1.125 0 0 Z " fill="#03471C" transform="translate(78,163)"/>
<path d="M0 0 C1.03125 0.00322266 2.0625 0.00644531 3.125 0.00976562 C4.74535156 0.02233398 4.74535156 0.02233398 6.3984375 0.03515625 C8.03039062 0.04192383 8.03039062 0.04192383 9.6953125 0.04882812 C12.38807539 0.06063849 15.08072938 0.07710847 17.7734375 0.09765625 C17.7734375 0.42765625 17.7734375 0.75765625 17.7734375 1.09765625 C16.72542969 1.15824219 15.67742187 1.21882813 14.59765625 1.28125 C13.21873702 1.36567363 11.83983145 1.45032072 10.4609375 1.53515625 C9.42549805 1.59413086 9.42549805 1.59413086 8.36914062 1.65429688 C5.30182215 1.8469304 2.70375598 2.12088342 -0.2265625 3.09765625 C-2.55956075 3.13719859 -4.89364439 3.14167357 -7.2265625 3.09765625 C-7.2265625 2.43765625 -7.2265625 1.77765625 -7.2265625 1.09765625 C-4.66933021 -0.1809599 -2.85919148 -0.01570984 0 0 Z " fill="#69AE45" transform="translate(224.2265625,114.90234375)"/>
<path d="M0 0 C1 2 1 2 0.546875 4.05859375 C0.28390625 4.84363281 0.0209375 5.62867188 -0.25 6.4375 C-0.62898438 7.61119141 -0.62898438 7.61119141 -1.015625 8.80859375 C-2.05149979 11.11464835 -3.16109151 12.30330043 -5 14 C-6.17574711 16.09989652 -6.17574711 16.09989652 -7 18 C-8 15 -8 15 -6.6015625 11.6796875 C-5.95287044 10.40623054 -5.29356847 9.13813508 -4.625 7.875 C-4.13 6.90626953 -4.13 6.90626953 -3.625 5.91796875 C-1.18313718 1.18313718 -1.18313718 1.18313718 0 0 Z " fill="#659A36" transform="translate(124,43)"/>
<path d="M0 0 C2.97 0.33 5.94 0.66 9 1 C9 1.66 9 2.32 9 3 C7.06532058 3.83986084 5.12714871 4.67168027 3.1875 5.5 C1.56908203 6.19609375 1.56908203 6.19609375 -0.08203125 6.90625 C-3 8 -3 8 -6 8 C-6 7.34 -6 6.68 -6 6 C-3.36 5.01 -0.72 4.02 2 3 C1.34 2.67 0.68 2.34 0 2 C0 1.34 0 0.68 0 0 Z " fill="#143925" transform="translate(123,148)"/>
<path d="M0 0 C0.99 0.33 1.98 0.66 3 1 C0.48169253 4.12270126 -0.7261549 4.94523098 -4.75 5.75 C-6.35875 5.87375 -6.35875 5.87375 -8 6 C-7.34 7.32 -6.68 8.64 -6 10 C-7.65 10.33 -9.3 10.66 -11 11 C-10.4264514 7.67341813 -9.64008597 6.11206878 -7 4 C-4.70538441 2.45575633 -2.49525197 1.24762599 0 0 Z " fill="#4C722B" transform="translate(38,134)"/>
<path d="M0 0 C3.3 0 6.6 0 10 0 C10 1.32 10 2.64 10 4 C11.65 4.33 13.3 4.66 15 5 C14.360625 5.12375 13.72125 5.2475 13.0625 5.375 C12.381875 5.58125 11.70125 5.7875 11 6 C10.67 6.66 10.34 7.32 10 8 C9.34 6.68 8.68 5.36 8 4 C7.236875 4.04125 6.47375 4.0825 5.6875 4.125 C3 4 3 4 0 2 C0 1.34 0 0.68 0 0 Z " fill="#70B233" transform="translate(56,192)"/>
<path d="M0 0 C0.66 0.66 1.32 1.32 2 2 C1.9765625 4.3828125 1.9765625 4.3828125 1.625 7.125 C1.51414063 8.03507813 1.40328125 8.94515625 1.2890625 9.8828125 C1.19367188 10.58148438 1.09828125 11.28015625 1 12 C1.66 12.33 2.32 12.66 3 13 C2.03114628 14.68496298 1.03013277 16.35178756 0 18 C-0.33 18 -0.66 18 -1 18 C-1.02717692 15.93757383 -1.0464758 13.87504297 -1.0625 11.8125 C-1.07410156 10.66394531 -1.08570313 9.51539063 -1.09765625 8.33203125 C-1.01192832 5.40699414 -0.67849023 2.83683709 0 0 Z " fill="#0D3724" transform="translate(158,141)"/>
<path d="M0 0 C0.99 0.33 1.98 0.66 3 1 C3 1.99 3 2.98 3 4 C-2.08086796 4.84681133 -6.84828377 5.09038099 -12 5 C-11.67 4.34 -11.34 3.68 -11 3 C-8.6693782 2.64820803 -6.33564933 2.31669821 -4 2 C-3.2575 1.62875 -2.515 1.2575 -1.75 0.875 C-0.88375 0.441875 -0.88375 0.441875 0 0 Z " fill="#5C9839" transform="translate(166,212)"/>
<path d="M0 0 C9.89494459 0.81918931 9.89494459 0.81918931 14 3 C14.33 3.66 14.66 4.32 15 5 C9.72684667 4.5547115 4.98229776 3.91626837 0 2 C0 1.34 0 0.68 0 0 Z " fill="#76A644" transform="translate(67,198)"/>
<path d="M0 0 C0.99 0.33 1.98 0.66 3 1 C3.73046875 3.06640625 3.73046875 3.06640625 4.1875 5.5625 C4.34605469 6.38878906 4.50460938 7.21507812 4.66796875 8.06640625 C4.77753906 8.70449219 4.88710937 9.34257813 5 10 C4.34 9.34 3.68 8.68 3 8 C3 6.68 3 5.36 3 4 C2.34 4 1.68 4 1 4 C0.93941406 4.61488281 0.87882813 5.22976562 0.81640625 5.86328125 C0.69072266 7.07564453 0.69072266 7.07564453 0.5625 8.3125 C0.48128906 9.11300781 0.40007812 9.91351563 0.31640625 10.73828125 C0 13 0 13 -1 16 C-1.66 16 -2.32 16 -3 16 C-2.01 10.72 -1.02 5.44 0 0 Z " fill="#649531" transform="translate(155,47)"/>
<path d="M0 0 C1.093125 0.0825 2.18625 0.165 3.3125 0.25 C3.3125 1.57 3.3125 2.89 3.3125 4.25 C2.57 4.394375 1.8275 4.53875 1.0625 4.6875 C-1.20777739 5.15187492 -3.44509479 5.66863569 -5.6875 6.25 C-6.0175 5.59 -6.3475 4.93 -6.6875 4.25 C-4.79150483 0.68106792 -4.16790733 0.28256999 0 0 Z " fill="#4F9E35" transform="translate(225.6875,182.75)"/>
<path d="M0 0 C3.63 0 7.26 0 11 0 C7.83433427 2.11044382 5.48802585 2.75552077 1.8125 3.625 C0.72582031 3.88539063 -0.36085937 4.14578125 -1.48046875 4.4140625 C-2.31191406 4.60742188 -3.14335937 4.80078125 -4 5 C-4.33 4.34 -4.66 3.68 -5 3 C-3.35 2.67 -1.7 2.34 0 2 C0 1.34 0 0.68 0 0 Z " fill="#75A142" transform="translate(193,152)"/>
<path d="M0 0 C0.66 0 1.32 0 2 0 C2.33 0.99 2.66 1.98 3 3 C1.71283353 4.00578589 0.42011342 5.00446798 -0.875 6 C-1.95394531 6.8353125 -1.95394531 6.8353125 -3.0546875 7.6875 C-5 9 -5 9 -7 9 C-6.67 7.02 -6.34 5.04 -6 3 C-3 2 -3 2 0 3 C0 2.01 0 1.02 0 0 Z " fill="#7CAA3F" transform="translate(211,143)"/>
<path d="M0 0 C4.14085283 3.15064889 6.28964209 5.00049227 8 10 C9.52007842 11.77277259 9.52007842 11.77277259 11 13 C10.67 13.66 10.34 14.32 10 15 C4.94336573 11.57933564 2.16492103 7.08997609 -1 2 C-0.67 1.34 -0.34 0.68 0 0 Z " fill="#063D17" transform="translate(64,133)"/>
<path d="M0 0 C0.66 0.99 1.32 1.98 2 3 C4.19454681 3.57993699 4.19454681 3.57993699 6.625 3.6875 C7.44226563 3.75324219 8.25953125 3.81898438 9.1015625 3.88671875 C9.72804687 3.92410156 10.35453125 3.96148437 11 4 C11 4.33 11 4.66 11 5 C6.38 5.33 1.76 5.66 -3 6 C-3.66 4.68 -4.32 3.36 -5 2 C-4.360625 1.855625 -3.72125 1.71125 -3.0625 1.5625 C-1.02454854 1.18992819 -1.02454854 1.18992819 0 0 Z " fill="#114523" transform="translate(171,168)"/>
<path d="M0 0 C-0.33 0.99 -0.66 1.98 -1 3 C-4.3 3.33 -7.6 3.66 -11 4 C-11 3.34 -11 2.68 -11 2 C-12.32 1.67 -13.64 1.34 -15 1 C-9.92928099 0.28832014 -5.11791642 -0.10662326 0 0 Z " fill="#0F4A22" transform="translate(200,160)"/>
<path d="M0 0 C1.45945288 0.08708669 2.91765868 0.19526907 4.375 0.3125 C5.59316406 0.39951172 5.59316406 0.39951172 6.8359375 0.48828125 C9 1 9 1 11 4 C7.37 4 3.74 4 0 4 C0 2.68 0 1.36 0 0 Z " fill="#084816" transform="translate(158,171)"/>
<path d="M0 0 C9.41002278 0.96355353 9.41002278 0.96355353 14 2 C14 2.99 14 3.98 14 5 C12.68 5 11.36 5 10 5 C10 4.34 10 3.68 10 3 C7.03 3 4.06 3 1 3 C0.67 2.01 0.34 1.02 0 0 Z " fill="#75B639" transform="translate(43,170)"/>
<path d="M0 0 C0.66 0.66 1.32 1.32 2 2 C-1.625 5 -1.625 5 -5 5 C-5 5.66 -5 6.32 -5 7 C-6.65 7.66 -8.3 8.32 -10 9 C-9.78515625 7.171875 -9.78515625 7.171875 -9 5 C-6.93359375 3.515625 -6.93359375 3.515625 -4.4375 2.25 C-3.61121094 1.82203125 -2.78492188 1.3940625 -1.93359375 0.953125 C-1.29550781 0.63859375 -0.65742188 0.3240625 0 0 Z " fill="#0C3B13" transform="translate(184,128)"/>
<path d="M0 0 C1.125 3.75 1.125 3.75 0 6 C-0.66 6 -1.32 6 -2 6 C-2 5.34 -2 4.68 -2 4 C-5.96 5.98 -5.96 5.98 -10 8 C-8.76736651 4.30209954 -7.79947549 4.0645154 -4.4375 2.3125 C-3.61121094 1.87550781 -2.78492188 1.43851563 -1.93359375 0.98828125 C-1.29550781 0.66214844 -0.65742188 0.33601562 0 0 Z " fill="#507535" transform="translate(252,156)"/>
<path d="M0 0 C1.9375 0.3125 1.9375 0.3125 4 1 C4.33 1.99 4.66 2.98 5 4 C5.66 4.33 6.32 4.66 7 5 C6.67 6.32 6.34 7.64 6 9 C3.36 8.01 0.72 7.02 -2 6 C-2 5.67 -2 5.34 -2 5 C-0.35 5 1.3 5 3 5 C3 4.01 3 3.02 3 2 C2.01 2 1.02 2 0 2 C0 1.34 0 0.68 0 0 Z " fill="#5B8745" transform="translate(233,136)"/>
<path d="M0 0 C3.875 1.75 3.875 1.75 5 4 C4.34 4 3.68 4 3 4 C3 4.66 3 5.32 3 6 C-1 6 -1 6 -3.25 4 C-3.8275 3.34 -4.405 2.68 -5 2 C-3.35 2 -1.7 2 0 2 C0 1.34 0 0.68 0 0 Z " fill="#0B552C" transform="translate(216,103)"/>
<path d="M0 0 C5 2 5 2 10 4 C10 4.66 10 5.32 10 6 C2.25 5.25 2.25 5.25 0 3 C0 2.01 0 1.02 0 0 Z " fill="#6F9D43" transform="translate(57,100)"/>
<path d="M0 0 C2.97 0.495 2.97 0.495 6 1 C5.67 2.65 5.34 4.3 5 6 C4.01 6.33 3.02 6.66 2 7 C0 5 0 5 -0.125 2.375 C-0.08375 1.59125 -0.0425 0.8075 0 0 Z " fill="#5B913F" transform="translate(185,203)"/>
<path d="M0 0 C0.99386719 0.00902344 1.98773438 0.01804688 3.01171875 0.02734375 C4.15060547 0.04474609 4.15060547 0.04474609 5.3125 0.0625 C5.3125 0.7225 5.3125 1.3825 5.3125 2.0625 C1.05449462 3.48183513 -2.91661538 3.78901677 -7.125 2.0625 C-7.640625 1.7325 -8.15625 1.4025 -8.6875 1.0625 C-5.53819107 0.01273036 -3.29935544 -0.03881595 0 0 Z " fill="#68A331" transform="translate(89.6875,203.9375)"/>
<path d="M0 0 C3.3 0.33 6.6 0.66 10 1 C10 1.66 10 2.32 10 3 C10.99 3.33 11.98 3.66 13 4 C9.77208445 6.1519437 8.71599191 6.20086443 5 6 C5.66 5.67 6.32 5.34 7 5 C7 4.34 7 3.68 7 3 C4.69 2.34 2.38 1.68 0 1 C0 0.67 0 0.34 0 0 Z " fill="#1F5B36" transform="translate(113,147)"/>
<path d="M0 0 C2.68234235 2.42457972 4.36856725 5.07510397 6.1875 8.1875 C6.71730469 9.08855469 7.24710937 9.98960938 7.79296875 10.91796875 C8.19128906 11.60503906 8.58960937 12.29210937 9 13 C5.43780599 11.80669454 3.47111435 10.98670935 1.6875 7.625 C0 4 0 4 0 0 Z " fill="#146416" transform="translate(58,104)"/>
<path d="M0 0 C0.66 0 1.32 0 2 0 C1.979375 0.94875 1.95875 1.8975 1.9375 2.875 C1.77448174 5.90666283 1.77448174 5.90666283 3 8 C1.35 8.66 -0.3 9.32 -2 10 C-3.39195915 5.82412255 -1.82323219 3.86525224 0 0 Z " fill="#083E23" transform="translate(162,131)"/>
<path d="M0 0 C-1.51671964 4.55015893 -5.16891053 6.50057264 -9 9 C-8.62890625 7.078125 -8.62890625 7.078125 -8 5 C-5.9375 3.75 -5.9375 3.75 -4 3 C-4 2.34 -4 1.68 -4 1 C-2 0 -2 0 0 0 Z " fill="#4C7F32" transform="translate(239,177)"/>
<path d="M0 0 C5.31027254 1.46032495 9.46330032 3.98320986 14 7 C13.01 7.495 13.01 7.495 12 8 C7.25147171 6.32465344 3.28731693 3.83520308 0 0 Z " fill="#073D1E" transform="translate(75,148)"/>
<path d="M0 0 C1.423125 0.2784375 1.423125 0.2784375 2.875 0.5625 C5.89868793 1.28686632 5.89868793 1.28686632 8 0 C8.66 0.66 9.32 1.32 10 2 C11.98821313 2.39764263 13.98944339 2.73775349 16 3 C16 3.33 16 3.66 16 4 C10.62449542 4.21502018 6.01342137 4.25603962 1 2 C0.67 1.34 0.34 0.68 0 0 Z " fill="#10492D" transform="translate(88,154)"/>
<path d="M0 0 C5.15464734 0.48324819 8.81550319 3.18610761 13 6 C12.67 6.66 12.34 7.32 12 8 C8.04 6.02 4.08 4.04 0 2 C0 1.34 0 0.68 0 0 Z " fill="#6D9A43" transform="translate(95,111)"/>
<path d="M0 0 C5.17930997 1.24303439 8.70166639 2.85487785 13 6 C10 7 10 7 7.51953125 6.00390625 C6.62621094 5.52824219 5.73289063 5.05257812 4.8125 4.5625 C3.91144531 4.08941406 3.01039063 3.61632812 2.08203125 3.12890625 C1.39496094 2.75636719 0.70789063 2.38382812 0 2 C0 1.34 0 0.68 0 0 Z " fill="#143E20" transform="translate(234,108)"/>
<path d="M0 0 C5.77378925 0.4811491 9.95859836 2.18467181 15 5 C14.34 5.66 13.68 6.32 13 7 C12.48050781 6.73445312 11.96101562 6.46890625 11.42578125 6.1953125 C7.66979306 4.29301903 3.94774121 2.48040295 0 1 C0 0.67 0 0.34 0 0 Z " fill="#0C4022" transform="translate(232,130)"/>
<path d="M0 0 C0.66 0.33 1.32 0.66 2 1 C1.34 2.98 0.68 4.96 0 7 C-0.66 6.67 -1.32 6.34 -2 6 C-2 5.34 -2 4.68 -2 4 C-3.32 3.67 -4.64 3.34 -6 3 C-4.03533587 1.93224776 -2.03144641 0.93446535 0 0 Z " fill="#64A937" transform="translate(247,161)"/>
<path d="M0 0 C1.08174162 3.36541838 0.92538169 4.29847322 0 8 C-4.455 8.495 -4.455 8.495 -9 9 C-6.38485683 6.87961365 -3.80362384 4.86908256 -1 3 C-0.67 2.01 -0.34 1.02 0 0 Z " fill="#124526" transform="translate(242,143)"/>
<path d="M0 0 C3.82097239 0.53069061 6.06171403 1.49701566 9 4 C7.02 4.99 7.02 4.99 5 6 C4.34 5.34 3.68 4.68 3 4 C2.01 3.34 1.02 2.68 0 2 C0 1.34 0 0.68 0 0 Z " fill="#125024" transform="translate(96,142)"/>
<path d="M0 0 C0.99 0.33 1.98 0.66 3 1 C3.33 2.98 3.66 4.96 4 7 C1.5 5.6875 1.5 5.6875 -1 4 C-1 1 -1 1 0 0 Z " fill="#607B43" transform="translate(129,119)"/>
<path d="M0 0 C0.66 0.33 1.32 0.66 2 1 C1.67 3.31 1.34 5.62 1 8 C-0.65 8.66 -2.3 9.32 -4 10 C-4.1875 7.6875 -4.1875 7.6875 -4 5 C-2.5625 3.3125 -2.5625 3.3125 -1 2 C-0.67 1.34 -0.34 0.68 0 0 Z " fill="#72B12F" transform="translate(128,37)"/>
<path d="M0 0 C2.6224715 2.6224715 2.64217954 4.35023127 3 8 C2.5625 10.875 2.5625 10.875 2 13 C1.34 13 0.68 13 0 13 C0 8.71 0 4.42 0 0 Z " fill="#0D4C29" transform="translate(159,140)"/>
<path d="M0 0 C0.66 0 1.32 0 2 0 C0.63029745 2.95012857 -0.82609125 5.5652222 -3 8 C-3.99 8 -4.98 8 -6 8 C-6.33 7.01 -6.66 6.02 -7 5 C-6.34 5 -5.68 5 -5 5 C-4.67 4.34 -4.34 3.68 -4 3 C-3.01 2.67 -2.02 2.34 -1 2 C-0.67 1.34 -0.34 0.68 0 0 Z " fill="#72A23C" transform="translate(221,135)"/>
<path d="M0 0 C0.75 1.6875 0.75 1.6875 1 4 C-0.8125 6.75 -0.8125 6.75 -3 9 C-3.66 9 -4.32 9 -5 9 C-3.50163895 5.88801935 -1.80066242 2.9465385 0 0 Z " fill="#063210" transform="translate(255,145)"/>
<path d="M0 0 C-6.625 4 -6.625 4 -10 4 C-9.67 3.01 -9.34 2.02 -9 1 C-3.79245283 -1.26415094 -3.79245283 -1.26415094 0 0 Z " fill="#134A1C" transform="translate(38,135)"/>
<path d="M0 0 C0.66 0.33 1.32 0.66 2 1 C1.34 2.32 0.68 3.64 0 5 C-1.98 5 -3.96 5 -6 5 C-3.375 1.125 -3.375 1.125 0 0 Z " fill="#6FAB34" transform="translate(186,132)"/>
<path d="M0 0 C0 0.99 0 1.98 0 3 C-3.96 3.66 -7.92 4.32 -12 5 C-11 3 -11 3 -9.00390625 2.1484375 C-8.19824219 1.89320312 -7.39257812 1.63796875 -6.5625 1.375 C-5.75941406 1.11460938 -4.95632812 0.85421875 -4.12890625 0.5859375 C-2 0 -2 0 0 0 Z " fill="#4D8E37" transform="translate(217,116)"/>
<path d="M0 0 C1.5625 1.8125 1.5625 1.8125 3 4 C2.67 4.99 2.34 5.98 2 7 C0.0625 6.1875 0.0625 6.1875 -2 5 C-2.33 4.01 -2.66 3.02 -3 2 C-2.01 1.34 -1.02 0.68 0 0 Z " fill="#68A03A" transform="translate(149,104)"/>
<path d="M0 0 C4.71403788 0.47939368 8.66579301 0.96834048 13 3 C9.30581799 4.231394 6.7943739 3.64432764 3 3 C3 2.34 3 1.68 3 1 C2.01 0.67 1.02 0.34 0 0 Z " fill="#0F3C22" transform="translate(220,104)"/>
<path d="M0 0 C0.66 0.33 1.32 0.66 2 1 C0.35 4.3 -1.3 7.6 -3 11 C-3.66 11 -4.32 11 -5 11 C-3.77472971 6.94718288 -2.30119506 3.55639236 0 0 Z " fill="#6D983B" transform="translate(151,64)"/>
<path d="M0 0 C2.72426311 2.35277269 3.8141763 4.62496331 5 8 C5.66 8 6.32 8 7 8 C7 8.66 7 9.32 7 10 C3.17398693 8.54875366 1.77670876 6.64225296 0 3 C0 2.01 0 1.02 0 0 Z " fill="#719843" transform="translate(16,161)"/>
<path d="M0 0 C0.598125 0.350625 1.19625 0.70125 1.8125 1.0625 C1.8125 2.3825 1.8125 3.7025 1.8125 5.0625 C-1.07187779 3.76950306 -3.05969421 2.40308637 -5.1875 0.0625 C-2.1875 -0.9375 -2.1875 -0.9375 0 0 Z " fill="#698B53" transform="translate(59.1875,130.9375)"/>
<path d="M0 0 C3.65316671 1.24976756 4.78065836 1.67098753 7 5 C6.67 5.99 6.34 6.98 6 8 C4.9970458 6.85675161 3.99770973 5.71032809 3 4.5625 C2.443125 3.92441406 1.88625 3.28632812 1.3125 2.62890625 C0 1 0 1 0 0 Z " fill="#5EAA3F" transform="translate(65,114)"/>
<path d="M0 0 C0.66 0 1.32 0 2 0 C2.33 2.64 2.66 5.28 3 8 C1.68 7.67 0.36 7.34 -1 7 C-0.67 4.69 -0.34 2.38 0 0 Z " fill="#72B232" transform="translate(156,51)"/>
<path d="M0 0 C2.64 0.99 5.28 1.98 8 3 C7.67 3.66 7.34 4.32 7 5 C4.69 4.67 2.38 4.34 0 4 C0 2.68 0 1.36 0 0 Z " fill="#25681B" transform="translate(91,137)"/>
<path d="M0 0 C0.99 0.33 1.98 0.66 3 1 C2.67 1.99 2.34 2.98 2 4 C3.32 4.33 4.64 4.66 6 5 C2.98968256 5.93423645 2.13349732 6.04449911 -1 5 C-0.67 3.35 -0.34 1.7 0 0 Z " fill="#628D46" transform="translate(226,135)"/>
<path d="M0 0 C0.66 0.33 1.32 0.66 2 1 C1.04882866 2.1725131 0.08882991 3.33787015 -0.875 4.5 C-1.40867188 5.1496875 -1.94234375 5.799375 -2.4921875 6.46875 C-2.98976562 6.9740625 -3.48734375 7.479375 -4 8 C-4.66 8 -5.32 8 -6 8 C-4.55746343 4.63408134 -2.66735273 2.48952921 0 0 Z " fill="#5A8A30" transform="translate(172,142)"/>
<path d="M0 0 C-0.33 0.99 -0.66 1.98 -1 3 C-2.98 3.33 -4.96 3.66 -7 4 C-7.33 3.01 -7.66 2.02 -8 1 C-5.10765685 0.17361624 -3.11257569 0 0 0 Z " fill="#6D9947" transform="translate(56,132)"/>
<path d="M0 0 C1.98 0 3.96 0 6 0 C5.34 1.32 4.68 2.64 4 4 C3.01 4 2.02 4 1 4 C0.67 2.68 0.34 1.36 0 0 Z " fill="#51A42B" transform="translate(165,179)"/>
<path d="M0 0 C1.670625 0.061875 1.670625 0.061875 3.375 0.125 C1.6875 1.6875 1.6875 1.6875 -0.625 3.125 C-3.375 2.8125 -3.375 2.8125 -5.625 2.125 C-3.625 0.125 -3.625 0.125 0 0 Z " fill="#114920" transform="translate(207.625,157.875)"/>
<path d="M0 0 C3.77545388 1.09068668 6.47043472 1.9083091 9 5 C5.65626525 4.44271087 2.96687001 3.64826111 0 2 C0 1.34 0 0.68 0 0 Z " fill="#5E823D" transform="translate(14,156)"/>
<path d="M0 0 C0.66 0 1.32 0 2 0 C2 0.99 2 1.98 2 3 C3.65 3 5.3 3 7 3 C6.67 3.66 6.34 4.32 6 5 C3.0625 4.625 3.0625 4.625 0 4 C-0.33 3.34 -0.66 2.68 -1 2 C-0.67 1.34 -0.34 0.68 0 0 Z " fill="#6A9344" transform="translate(165,150)"/>
<path d="M0 0 C2.97 0.495 2.97 0.495 6 1 C3.82575883 3.50037734 2.26954202 4.43628586 -1 5 C-0.67 3.35 -0.34 1.7 0 0 Z " fill="#19581D" transform="translate(41,130)"/>
<path d="M0 0 C0.66 0.33 1.32 0.66 2 1 C-0.25 3.5625 -0.25 3.5625 -3 6 C-5.3125 5.8125 -5.3125 5.8125 -7 5 C-4.88437775 2.67281553 -2.94982021 1.14186589 0 0 Z " fill="#7BB43E" transform="translate(194,127)"/>
<path d="M0 0 C0.99 0.33 1.98 0.66 3 1 C3.73046875 3.06640625 3.73046875 3.06640625 4.1875 5.5625 C4.34605469 6.38878906 4.50460938 7.21507812 4.66796875 8.06640625 C4.77753906 8.70449219 4.88710937 9.34257813 5 10 C4.34 9.34 3.68 8.68 3 8 C3 6.68 3 5.36 3 4 C2.01 4 1.02 4 0 4 C0 2.68 0 1.36 0 0 Z " fill="#6C973F" transform="translate(155,47)"/>
<path d="M0 0 C0.66 0.33 1.32 0.66 2 1 C2.625 3.0625 2.625 3.0625 3 5 C1.35 5.33 -0.3 5.66 -2 6 C-1.49396008 3.83125748 -1.00016187 2.00032373 0 0 Z " fill="#446932" transform="translate(29,139)"/>
<path d="M0 0 C0.33 1.32 0.66 2.64 1 4 C0.360625 4.268125 -0.27875 4.53625 -0.9375 4.8125 C-3.33131686 5.88667752 -3.33131686 5.88667752 -4 9 C-3.125 4.25 -3.125 4.25 -2 2 C-1.34 2 -0.68 2 0 2 C0 1.34 0 0.68 0 0 Z " fill="#0D3B20" transform="translate(168,121)"/>
</svg>
